NotoSerifArmenian-Light.ufo
<glyph name="dieresiscomb" format="2">
  <unicode hex="0308"/>
  <anchor x="3" y="536" name="_top"/>
  <outline>
    <contour>
      <point x="83" y="658" type="curve" smooth="yes"/>
      <point x="98" y="658"/>
      <point x="106" y="666"/>
      <point x="106" y="698" type="curve" smooth="yes"/>
      <point x="106" y="729"/>
      <point x="98" y="738"/>
      <point x="83" y="738" type="curve" smooth="yes"/>
      <point x="69" y="738"/>
      <point x="60" y="729"/>
      <point x="60" y="698" type="curve" smooth="yes"/>
      <point x="60" y="666"/>
      <point x="69" y="658"/>
    </contour>
    <contour>
      <point x="-78" y="658" type="curve" smooth="yes"/>
      <point x="-63" y="658"/>
      <point x="-55" y="666"/>
      <point x="-55" y="698" type="curve" smooth="yes"/>
      <point x="-55" y="729"/>
      <point x="-63" y="738"/>
      <point x="-78" y="738" type="curve" smooth="yes"/>
      <point x="-92" y="738"/>
      <point x="-101" y="729"/>
      <point x="-101" y="698" type="curve" smooth="yes"/>
      <point x="-101" y="666"/>
      <point x="-92" y="658"/>
    </contour>
  </outline>
</glyph>
<glyph name="uni0531" format="2">
  <advance width="707"/>
  <unicode hex="0531"/>
  <note>
uni0531
</note>
  <anchor x="319" y="714" name="top"/>
  <outline>
    <contour>
      <point x="464" y="714" type="line"/>
      <point x="464" y="694" type="line"/>
      <point x="514" y="694"/>
      <point x="520" y="683"/>
      <point x="520" y="606" type="curve" smooth="yes"/>
      <point x="520" y="219" type="line" smooth="yes"/>
      <point x="520" y="106"/>
      <point x="458" y="15"/>
      <point x="317" y="15" type="curve" smooth="yes"/>
      <point x="193" y="15"/>
      <point x="117" y="76"/>
      <point x="117" y="210" type="curve" smooth="yes"/>
      <point x="117" y="714" type="line"/>
      <point x="33" y="714" type="line"/>
      <point x="33" y="694" type="line"/>
      <point x="83" y="694"/>
      <point x="89" y="683"/>
      <point x="89" y="606" type="curve" smooth="yes"/>
      <point x="89" y="214" type="line" smooth="yes"/>
      <point x="89" y="51"/>
      <point x="181" y="-10"/>
      <point x="319" y="-10" type="curve" smooth="yes"/>
      <point x="474" y="-10"/>
      <point x="548" y="88"/>
      <point x="548" y="218" type="curve" smooth="yes"/>
      <point x="548" y="714" type="line"/>
    </contour>
    <contour>
      <point x="530" y="217" type="curve"/>
      <point x="530" y="190" type="line"/>
      <point x="546" y="197"/>
      <point x="565" y="200"/>
      <point x="590" y="200" type="curve" smooth="yes"/>
      <point x="635" y="200"/>
      <point x="661" y="176"/>
      <point x="661" y="116" type="curve" smooth="yes"/>
      <point x="661" y="0" type="line"/>
      <point x="689" y="0" type="line"/>
      <point x="689" y="115" type="line" smooth="yes"/>
      <point x="689" y="201"/>
      <point x="650" y="225"/>
      <point x="590" y="225" type="curve" smooth="yes"/>
      <point x="566" y="225"/>
      <point x="547" y="222"/>
    </contour>
  </outline>
</glyph>
<glyph name="uni0533" format="2">
  <advance width="567"/>
  <unicode hex="0533"/>
  <note>
uni0533
</note>
  <outline>
    <contour>
      <point x="411" y="0" type="line"/>
      <point x="505" y="0" type="line"/>
      <point x="505" y="20" type="line"/>
      <point x="445" y="20"/>
      <point x="439" y="31"/>
      <point x="439" y="108" type="curve" smooth="yes"/>
      <point x="439" y="530" type="line" smooth="yes"/>
      <point x="439" y="652"/>
      <point x="388" y="724"/>
      <point x="252" y="724" type="curve" smooth="yes"/>
      <point x="118" y="724"/>
      <point x="46" y="655"/>
      <point x="46" y="518" type="curve" smooth="yes"/>
      <point x="46" y="386"/>
      <point x="154" y="316"/>
      <point x="293" y="316" type="curve" smooth="yes"/>
      <point x="411" y="316" type="line"/>
    </contour>
    <contour>
      <point x="293" y="341" type="line" smooth="yes"/>
      <point x="176" y="341"/>
      <point x="74" y="398"/>
      <point x="74" y="517" type="curve" smooth="yes"/>
      <point x="74" y="637"/>
      <point x="130" y="699"/>
      <point x="253" y="699" type="curve" smooth="yes"/>
      <point x="378" y="699"/>
      <point x="411" y="628"/>
      <point x="411" y="530" type="curve" smooth="yes"/>
      <point x="411" y="341" type="line"/>
    </contour>
    <contour>
      <point x="431" y="316" type="line"/>
      <point x="562" y="316" type="line"/>
      <point x="562" y="341" type="line"/>
      <point x="431" y="341" type="line"/>
    </contour>
  </outline>
</glyph>
<glyph name="uni0534" format="2">
  <advance width="637"/>
  <unicode hex="0534"/>
  <note>
uni0534
</note>
  <outline>
    <contour>
      <point x="72" y="368" type="line"/>
      <point x="100" y="368" type="line"/>
      <point x="100" y="495" type="line" smooth="yes"/>
      <point x="100" y="608"/>
      <point x="152" y="699"/>
      <point x="283" y="699" type="curve" smooth="yes"/>
      <point x="397" y="699"/>
      <point x="463" y="638"/>
      <point x="463" y="504" type="curve" smooth="yes"/>
      <point x="463" y="0" type="line"/>
      <point x="547" y="0" type="line"/>
      <point x="547" y="20" type="line"/>
      <point x="497" y="20"/>
      <point x="491" y="31"/>
      <point x="491" y="108" type="curve" smooth="yes"/>
      <point x="491" y="500" type="line" smooth="yes"/>
      <point x="491" y="663"/>
      <point x="409" y="724"/>
      <point x="281" y="724" type="curve" smooth="yes"/>
      <point x="136" y="724"/>
      <point x="72" y="626"/>
      <point x="72" y="496" type="curve" smooth="yes"/>
    </contour>
    <contour>
      <point x="472" y="317" type="line"/>
      <point x="632" y="317" type="line"/>
      <point x="632" y="342" type="line"/>
      <point x="472" y="342" type="line"/>
    </contour>
  </outline>
</glyph>
<glyph name="uni0535" format="2">
  <advance width="573"/>
  <unicode hex="0535"/>
  <note>
uni0535
</note>
  <outline>
    <contour>
      <point x="305" y="-10" type="curve" smooth="yes"/>
      <point x="434" y="-10"/>
      <point x="521" y="51"/>
      <point x="521" y="214" type="curve" smooth="yes"/>
      <point x="521" y="306" type="line"/>
      <point x="493" y="306" type="line"/>
      <point x="493" y="210" type="line" smooth="yes"/>
      <point x="493" y="76"/>
      <point x="422" y="15"/>
      <point x="307" y="15" type="curve" smooth="yes"/>
      <point x="176" y="15"/>
      <point x="116" y="106"/>
      <point x="116" y="219" type="curve" smooth="yes"/>
      <point x="116" y="714" type="line"/>
      <point x="33" y="714" type="line"/>
      <point x="33" y="694" type="line"/>
      <point x="80" y="694"/>
      <point x="88" y="683"/>
      <point x="88" y="606" type="curve" smooth="yes"/>
      <point x="88" y="218" type="line" smooth="yes"/>
      <point x="88" y="88"/>
      <point x="160" y="-10"/>
    </contour>
    <contour>
      <point x="107" y="457" type="line"/>
      <point x="511" y="457" type="line"/>
      <point x="511" y="482" type="line"/>
      <point x="107" y="482" type="line"/>
    </contour>
  </outline>
</glyph>
<glyph name="uni0536" format="2">
  <advance width="535"/>
  <unicode hex="0536"/>
  <note>
uni0536
</note>
  <outline>
    <contour>
      <point x="260" y="285" type="curve" smooth="yes"/>
      <point x="416" y="285"/>
      <point x="487" y="382"/>
      <point x="487" y="507" type="curve" smooth="yes"/>
      <point x="487" y="631"/>
      <point x="423" y="728"/>
      <point x="266" y="728" type="curve" smooth="yes"/>
      <point x="120" y="728"/>
      <point x="35" y="642"/>
      <point x="35" y="507" type="curve" smooth="yes"/>
      <point x="35" y="380"/>
      <point x="109" y="285"/>
    </contour>
    <contour>
      <point x="46" y="0" type="line"/>
      <point x="74" y="0" type="line"/>
      <point x="74" y="179" type="line"/>
      <point x="46" y="179" type="line"/>
    </contour>
    <contour>
      <point x="480" y="0" type="line"/>
      <point x="508" y="0" type="line"/>
      <point x="508" y="13" type="line" smooth="yes"/>
      <point x="508" y="99"/>
      <point x="459" y="123"/>
      <point x="399" y="123" type="curve" smooth="yes"/>
      <point x="60" y="123" type="line"/>
      <point x="60" y="98" type="line"/>
      <point x="399" y="98" type="line" smooth="yes"/>
      <point x="444" y="98"/>
      <point x="480" y="74"/>
      <point x="480" y="14" type="curve" smooth="yes"/>
    </contour>
    <contour>
      <point x="71" y="100" type="line"/>
      <point x="263" y="100"/>
      <point x="487" y="224"/>
      <point x="487" y="507" type="curve"/>
      <point x="462" y="507" type="line"/>
      <point x="462" y="248"/>
      <point x="256" y="123"/>
      <point x="71" y="123" type="curve"/>
    </contour>
    <contour>
      <point x="260" y="310" type="curve" smooth="yes"/>
      <point x="126" y="310"/>
      <point x="63" y="391"/>
      <point x="63" y="507" type="curve" smooth="yes"/>
      <point x="63" y="630"/>
      <point x="136" y="703"/>
      <point x="266" y="703" type="curve" smooth="yes"/>
      <point x="405" y="703"/>
      <point x="459" y="616"/>
      <point x="459" y="507" type="curve" smooth="yes"/>
      <point x="459" y="392"/>
      <point x="399" y="310"/>
    </contour>
  </outline>
</glyph>
<glyph name="uni0537" format="2">
  <advance width="461"/>
  <unicode hex="0537"/>
  <note>
uni0537
</note>
  <outline>
    <contour>
      <point x="116" y="20" type="line"/>
      <point x="116" y="714" type="line"/>
      <point x="33" y="714" type="line"/>
      <point x="33" y="694" type="line"/>
      <point x="80" y="694"/>
      <point x="88" y="683"/>
      <point x="88" y="606" type="curve" smooth="yes"/>
      <point x="88" y="0" type="line"/>
    </contour>
    <contour>
      <point x="107" y="457" type="line"/>
      <point x="411" y="457" type="line"/>
      <point x="411" y="482" type="line"/>
      <point x="107" y="482" type="line"/>
    </contour>
    <contour>
      <point x="297" y="90" type="curve" smooth="yes"/>
      <point x="237" y="90"/>
      <point x="155" y="67"/>
      <point x="88" y="25" type="curve"/>
      <point x="88" y="0" type="line"/>
      <point x="157" y="41"/>
      <point x="235" y="65"/>
      <point x="297" y="65" type="curve" smooth="yes"/>
      <point x="359" y="65"/>
      <point x="387" y="44"/>
      <point x="387" y="-36" type="curve" smooth="yes"/>
      <point x="387" y="-62" type="line"/>
      <point x="415" y="-62" type="line"/>
      <point x="415" y="-37" type="line" smooth="yes"/>
      <point x="415" y="63"/>
      <point x="371" y="90"/>
    </contour>
  </outline>
</glyph>
<glyph name="uni0538" format="2">
  <advance width="584"/>
  <unicode hex="0538"/>
  <note>
uni0538
</note>
  <outline>
    <contour>
      <point x="291" y="724" type="curve" smooth="yes"/>
      <point x="146" y="724"/>
      <point x="82" y="626"/>
      <point x="82" y="496" type="curve" smooth="yes"/>
      <point x="82" y="0" type="line"/>
      <point x="110" y="0" type="line"/>
      <point x="110" y="495" type="line" smooth="yes"/>
      <point x="110" y="608"/>
      <point x="162" y="699"/>
      <point x="293" y="699" type="curve" smooth="yes"/>
      <point x="407" y="699"/>
      <point x="474" y="638"/>
      <point x="474" y="504" type="curve" smooth="yes"/>
      <point x="474" y="358" type="line"/>
      <point x="502" y="358" type="line"/>
      <point x="502" y="500" type="line" smooth="yes"/>
      <point x="502" y="663"/>
      <point x="419" y="724"/>
    </contour>
    <contour>
      <point x="101" y="0" type="line"/>
      <point x="512" y="0" type="line"/>
      <point x="512" y="25" type="line"/>
      <point x="101" y="25" type="line"/>
    </contour>
  </outline>
</glyph>
<glyph name="uni0539" format="2">
  <advance width="704"/>
  <unicode hex="0539"/>
  <note>
uni0539
</note>
  <outline>
    <contour>
      <point x="166" y="0" type="line"/>
      <point x="166" y="20" type="line"/>
      <point x="116" y="20"/>
      <point x="110" y="31"/>
      <point x="110" y="108" type="curve" smooth="yes"/>
      <point x="110" y="495" type="line" smooth="yes"/>
      <point x="110" y="611"/>
      <point x="173" y="699"/>
      <point x="339" y="699" type="curve" smooth="yes"/>
      <point x="485" y="699"/>
      <point x="566" y="624"/>
      <point x="566" y="448" type="curve"/>
      <point x="594" y="448" type="line"/>
      <point x="594" y="648"/>
      <point x="497" y="724"/>
      <point x="337" y="724" type="curve" smooth="yes"/>
      <point x="158" y="724"/>
      <point x="82" y="626"/>
      <point x="82" y="496" type="curve" smooth="yes"/>
      <point x="82" y="0" type="line"/>
    </contour>
    <contour>
      <point x="474" y="430" type="curve" smooth="yes"/>
      <point x="566" y="430" type="line"/>
      <point x="566" y="229"/>
      <point x="516" y="163"/>
      <point x="424" y="163" type="curve" smooth="yes"/>
      <point x="343" y="163"/>
      <point x="300" y="211"/>
      <point x="300" y="297" type="curve" smooth="yes"/>
      <point x="300" y="401"/>
      <point x="372" y="430"/>
    </contour>
    <contour>
      <point x="698" y="455" type="line"/>
      <point x="474" y="455" type="line" smooth="yes"/>
      <point x="353" y="455"/>
      <point x="272" y="414"/>
      <point x="272" y="297" type="curve" smooth="yes"/>
      <point x="272" y="188"/>
      <point x="330" y="138"/>
      <point x="424" y="138" type="curve" smooth="yes"/>
      <point x="534" y="138"/>
      <point x="594" y="213"/>
      <point x="594" y="430" type="curve"/>
      <point x="698" y="430" type="line"/>
    </contour>
  </outline>
</glyph>
<glyph name="uni053A" format="2">
  <advance width="577"/>
  <unicode hex="053A"/>
  <note>
uni053A
</note>
  <outline>
    <contour>
      <point x="252" y="-10" type="curve" smooth="yes"/>
      <point x="398" y="-10"/>
      <point x="449" y="73"/>
      <point x="449" y="212" type="curve" smooth="yes"/>
      <point x="449" y="714" type="line"/>
      <point x="355" y="714" type="line"/>
      <point x="355" y="694" type="line"/>
      <point x="415" y="694"/>
      <point x="421" y="683"/>
      <point x="421" y="606" type="curve" smooth="yes"/>
      <point x="421" y="458" type="line"/>
      <point x="320" y="458" type="line" smooth="yes"/>
      <point x="154" y="458"/>
      <point x="46" y="378"/>
      <point x="46" y="226" type="curve" smooth="yes"/>
      <point x="46" y="69"/>
      <point x="118" y="-10"/>
    </contour>
    <contour>
      <point x="253" y="15" type="curve" smooth="yes"/>
      <point x="130" y="15"/>
      <point x="74" y="99"/>
      <point x="74" y="227" type="curve" smooth="yes"/>
      <point x="74" y="366"/>
      <point x="176" y="433"/>
      <point x="320" y="433" type="curve" smooth="yes"/>
      <point x="421" y="433" type="line"/>
      <point x="421" y="212" type="line" smooth="yes"/>
      <point x="421" y="98"/>
      <point x="388" y="15"/>
    </contour>
    <contour>
      <point x="441" y="458" type="line"/>
      <point x="441" y="433" type="line"/>
      <point x="572" y="433" type="line"/>
      <point x="572" y="458" type="line"/>
    </contour>
  </outline>
</glyph>
<glyph name="uni053B" format="2">
  <advance width="530"/>
  <unicode hex="053B"/>
  <note>
uni053B
</note>
  <outline>
    <contour>
      <point x="117" y="325" type="line" smooth="yes"/>
      <point x="117" y="433"/>
      <point x="177" y="529"/>
      <point x="290" y="529" type="curve" smooth="yes"/>
      <point x="389" y="529"/>
      <point x="451" y="468"/>
      <point x="451" y="374" type="curve" smooth="yes"/>
      <point x="451" y="267" type="line"/>
      <point x="479" y="267" type="line"/>
      <point x="479" y="374" type="line" smooth="yes"/>
      <point x="479" y="493"/>
      <point x="402" y="554"/>
      <point x="288" y="554" type="curve" smooth="yes"/>
      <point x="210" y="554"/>
      <point x="150" y="509"/>
      <point x="117" y="434" type="curve"/>
      <point x="114" y="434" type="line"/>
      <point x="116" y="466"/>
      <point x="117" y="499"/>
      <point x="117" y="531" type="curve" smooth="yes"/>
      <point x="117" y="714" type="line"/>
      <point x="33" y="714" type="line"/>
      <point x="33" y="694" type="line"/>
      <point x="83" y="694"/>
      <point x="89" y="688"/>
      <point x="89" y="611" type="curve" smooth="yes"/>
      <point x="89" y="0" type="line"/>
      <point x="173" y="0" type="line"/>
      <point x="173" y="20" type="line"/>
      <point x="123" y="20"/>
      <point x="117" y="26"/>
      <point x="117" y="103" type="curve" smooth="yes"/>
    </contour>
  </outline>
</glyph>
<glyph name="uni053C" format="2">
  <advance width="424"/>
  <unicode hex="053C"/>
  <note>
uni053C
</note>
  <outline>
    <contour>
      <point x="414" y="87" type="line"/>
      <point x="389" y="87" type="line"/>
      <point x="389" y="32"/>
      <point x="382" y="25"/>
      <point x="330" y="25" type="curve" smooth="yes"/>
      <point x="117" y="25" type="line"/>
      <point x="117" y="714" type="line"/>
      <point x="33" y="714" type="line"/>
      <point x="33" y="694" type="line"/>
      <point x="83" y="694"/>
      <point x="89" y="688"/>
      <point x="89" y="611" type="curve" smooth="yes"/>
      <point x="89" y="0" type="line"/>
      <point x="414" y="0" type="line"/>
    </contour>
  </outline>
</glyph>
<glyph name="uni053D" format="2">
  <advance width="602"/>
  <unicode hex="053D"/>
  <note>
uni053D
</note>
  <outline>
    <contour>
      <point x="117" y="103" type="curve" smooth="yes"/>
      <point x="117" y="714" type="line"/>
      <point x="33" y="714" type="line"/>
      <point x="33" y="694" type="line"/>
      <point x="83" y="694"/>
      <point x="89" y="688"/>
      <point x="89" y="611" type="curve" smooth="yes"/>
      <point x="89" y="0" type="line"/>
      <point x="173" y="0" type="line"/>
      <point x="173" y="20" type="line"/>
      <point x="123" y="20"/>
      <point x="117" y="26"/>
    </contour>
    <contour>
      <point x="465" y="540" type="line"/>
      <point x="517" y="540"/>
      <point x="523" y="533"/>
      <point x="523" y="473" type="curve" smooth="yes"/>
      <point x="523" y="331" type="line" smooth="yes"/>
      <point x="523" y="228"/>
      <point x="493" y="189"/>
      <point x="410" y="189" type="curve" smooth="yes"/>
      <point x="344" y="189"/>
      <point x="303" y="220"/>
      <point x="303" y="331" type="curve" smooth="yes"/>
      <point x="303" y="560" type="line"/>
      <point x="99" y="560" type="line"/>
      <point x="99" y="535" type="line"/>
      <point x="275" y="535" type="line"/>
      <point x="275" y="331" type="line" smooth="yes"/>
      <point x="275" y="210"/>
      <point x="323" y="164"/>
      <point x="410" y="164" type="curve" smooth="yes"/>
      <point x="508" y="164"/>
      <point x="551" y="217"/>
      <point x="551" y="334" type="curve" smooth="yes"/>
      <point x="551" y="560" type="line"/>
      <point x="465" y="560" type="line"/>
    </contour>
  </outline>
</glyph>
<glyph name="uni053E" format="2">
  <advance width="558"/>
  <unicode hex="053E"/>
  <note>
uni053E
</note>
  <outline>
    <contour>
      <point x="205" y="585" type="curve" smooth="yes"/>
      <point x="85" y="616"/>
      <point x="50" y="651"/>
      <point x="50" y="714" type="curve"/>
      <point x="25" y="714" type="line"/>
      <point x="25" y="635"/>
      <point x="67" y="596"/>
      <point x="191" y="563" type="curve" smooth="yes"/>
      <point x="417" y="502"/>
      <point x="488" y="379"/>
      <point x="488" y="230" type="curve" smooth="yes"/>
      <point x="488" y="96"/>
      <point x="396" y="15"/>
      <point x="271" y="15" type="curve" smooth="yes"/>
      <point x="115" y="15"/>
      <point x="58" y="91"/>
      <point x="58" y="244" type="curve" smooth="yes"/>
      <point x="58" y="440"/>
      <point x="262" y="704"/>
      <point x="376" y="704" type="curve" smooth="yes"/>
      <point x="413" y="704"/>
      <point x="441" y="693"/>
      <point x="442" y="620" type="curve"/>
      <point x="456" y="620"/>
      <point x="469" y="626"/>
      <point x="469" y="646" type="curve" smooth="yes"/>
      <point x="469" y="700"/>
      <point x="434" y="729"/>
      <point x="376" y="729" type="curve" smooth="yes"/>
      <point x="245" y="729"/>
      <point x="30" y="449"/>
      <point x="30" y="244" type="curve" smooth="yes"/>
      <point x="30" y="74"/>
      <point x="98" y="-10"/>
      <point x="271" y="-10" type="curve" smooth="yes"/>
      <point x="414" y="-10"/>
      <point x="516" y="79"/>
      <point x="516" y="230" type="curve" smooth="yes"/>
      <point x="516" y="394"/>
      <point x="434" y="525"/>
    </contour>
  </outline>
</glyph>
<glyph name="uni0540" format="2">
  <advance width="457"/>
  <unicode hex="0540"/>
  <note>
uni0540
</note>
  <outline>
    <contour>
      <point x="375" y="-63" type="line"/>
      <point x="403" y="-63" type="line"/>
      <point x="403" y="-50" type="line" smooth="yes"/>
      <point x="403" y="36"/>
      <point x="361" y="63"/>
      <point x="301" y="67" type="curve" smooth="yes"/>
      <point x="43" y="83" type="line"/>
      <point x="41" y="58" type="line"/>
      <point x="299" y="42" type="line" smooth="yes"/>
      <point x="344" y="39"/>
      <point x="375" y="12"/>
      <point x="375" y="-47" type="curve" smooth="yes"/>
    </contour>
    <contour>
      <point x="69" y="58" type="line"/>
      <point x="69" y="436"/>
      <point x="166" y="704"/>
      <point x="306" y="704" type="curve" smooth="yes"/>
      <point x="356" y="704"/>
      <point x="384" y="687"/>
      <point x="385" y="615" type="curve"/>
      <point x="399" y="615"/>
      <point x="412" y="621"/>
      <point x="412" y="641" type="curve" smooth="yes"/>
      <point x="412" y="694"/>
      <point x="377" y="729"/>
      <point x="306" y="729" type="curve" smooth="yes"/>
      <point x="148" y="729"/>
      <point x="41" y="463"/>
      <point x="41" y="58" type="curve"/>
    </contour>
  </outline>
</glyph>
<glyph name="uni0541" format="2">
  <advance width="535"/>
  <unicode hex="0541"/>
  <note>
uni0541
</note>
  <outline>
    <contour>
      <point x="254" y="348" type="curve" smooth="yes"/>
      <point x="130" y="348"/>
      <point x="67" y="421"/>
      <point x="67" y="526" type="curve" smooth="yes"/>
      <point x="67" y="637"/>
      <point x="140" y="703"/>
      <point x="270" y="703" type="curve" smooth="yes"/>
      <point x="399" y="703"/>
      <point x="463" y="614"/>
      <point x="463" y="469" type="curve" smooth="yes"/>
      <point x="463" y="455"/>
      <point x="463" y="439"/>
      <point x="461" y="421" type="curve"/>
      <point x="416" y="381"/>
      <point x="336" y="348"/>
    </contour>
    <contour>
      <point x="457" y="389" type="curve"/>
      <point x="430" y="191"/>
      <point x="299" y="15"/>
      <point x="153" y="15" type="curve" smooth="yes"/>
      <point x="96" y="15"/>
      <point x="62" y="46"/>
      <point x="62" y="93" type="curve" smooth="yes"/>
      <point x="62" y="145"/>
      <point x="103" y="184"/>
      <point x="168" y="184" type="curve" smooth="yes"/>
      <point x="302" y="184"/>
      <point x="344" y="-10"/>
      <point x="477" y="-10" type="curve" smooth="yes"/>
      <point x="498" y="-10"/>
      <point x="508" y="-1"/>
      <point x="508" y="15" type="curve"/>
      <point x="342" y="15"/>
      <point x="335" y="209"/>
      <point x="168" y="209" type="curve" smooth="yes"/>
      <point x="86" y="209"/>
      <point x="34" y="160"/>
      <point x="34" y="93" type="curve" smooth="yes"/>
      <point x="34" y="31"/>
      <point x="80" y="-10"/>
      <point x="153" y="-10" type="curve" smooth="yes"/>
      <point x="340" y="-10"/>
      <point x="491" y="230"/>
      <point x="491" y="467" type="curve" smooth="yes"/>
      <point x="491" y="634"/>
      <point x="416" y="728"/>
      <point x="270" y="728" type="curve" smooth="yes"/>
      <point x="124" y="728"/>
      <point x="39" y="649"/>
      <point x="39" y="526" type="curve" smooth="yes"/>
      <point x="39" y="410"/>
      <point x="108" y="323"/>
      <point x="253" y="323" type="curve" smooth="yes"/>
      <point x="342" y="323"/>
      <point x="420" y="356"/>
    </contour>
  </outline>
</glyph>
<glyph name="uni0542" format="2">
  <advance width="652"/>
  <unicode hex="0542"/>
  <note>
uni0542
</note>
  <outline>
    <contour>
      <point x="476" y="0" type="line"/>
      <point x="647" y="0" type="line"/>
      <point x="647" y="25" type="line"/>
      <point x="476" y="25" type="line"/>
    </contour>
    <contour>
      <point x="288" y="724" type="curve" smooth="yes"/>
      <point x="160" y="724"/>
      <point x="72" y="663"/>
      <point x="72" y="500" type="curve" smooth="yes"/>
      <point x="72" y="349" type="line"/>
      <point x="100" y="349" type="line"/>
      <point x="100" y="504" type="line" smooth="yes"/>
      <point x="100" y="638"/>
      <point x="172" y="699"/>
      <point x="286" y="699" type="curve" smooth="yes"/>
      <point x="407" y="699"/>
      <point x="466" y="608"/>
      <point x="466" y="495" type="curve" smooth="yes"/>
      <point x="466" y="0" type="line"/>
      <point x="494" y="0" type="line"/>
      <point x="494" y="496" type="line" smooth="yes"/>
      <point x="494" y="626"/>
      <point x="423" y="724"/>
    </contour>
  </outline>
</glyph>
<glyph name="uni0543" format="2">
  <advance width="630"/>
  <unicode hex="0543"/>
  <note>
uni0543
</note>
  <outline>
    <contour>
      <point x="578" y="0" type="line"/>
      <point x="578" y="455"/>
      <point x="495" y="618"/>
      <point x="42" y="618" type="curve"/>
      <point x="42" y="591" type="line"/>
      <point x="463" y="591"/>
      <point x="550" y="452"/>
      <point x="550" y="25" type="curve"/>
      <point x="269" y="25" type="line" smooth="yes"/>
      <point x="137" y="25"/>
      <point x="84" y="69"/>
      <point x="84" y="178" type="curve" smooth="yes"/>
      <point x="84" y="361"/>
      <point x="281" y="704"/>
      <point x="465" y="704" type="curve" smooth="yes"/>
      <point x="519" y="704"/>
      <point x="547" y="677"/>
      <point x="548" y="595" type="curve"/>
      <point x="562" y="595"/>
      <point x="575" y="601"/>
      <point x="575" y="621" type="curve" smooth="yes"/>
      <point x="575" y="684"/>
      <point x="540" y="729"/>
      <point x="463" y="729" type="curve" smooth="yes"/>
      <point x="268" y="729"/>
      <point x="56" y="378"/>
      <point x="56" y="179" type="curve" smooth="yes"/>
      <point x="56" y="54"/>
      <point x="116" y="0"/>
      <point x="269" y="0" type="curve" smooth="yes"/>
    </contour>
  </outline>
</glyph>
<glyph name="uni0544" format="2">
  <advance width="668"/>
  <unicode hex="0544"/>
  <note>
uni0544
</note>
  <outline>
    <contour>
      <point x="464" y="714" type="line"/>
      <point x="464" y="694" type="line"/>
      <point x="514" y="694"/>
      <point x="520" y="683"/>
      <point x="520" y="606" type="curve" smooth="yes"/>
      <point x="520" y="219" type="line" smooth="yes"/>
      <point x="520" y="106"/>
      <point x="458" y="15"/>
      <point x="317" y="15" type="curve" smooth="yes"/>
      <point x="193" y="15"/>
      <point x="117" y="76"/>
      <point x="117" y="210" type="curve" smooth="yes"/>
      <point x="117" y="714" type="line"/>
      <point x="33" y="714" type="line"/>
      <point x="33" y="694" type="line"/>
      <point x="83" y="694"/>
      <point x="89" y="683"/>
      <point x="89" y="606" type="curve" smooth="yes"/>
      <point x="89" y="214" type="line" smooth="yes"/>
      <point x="89" y="51"/>
      <point x="181" y="-10"/>
      <point x="319" y="-10" type="curve" smooth="yes"/>
      <point x="474" y="-10"/>
      <point x="548" y="88"/>
      <point x="548" y="218" type="curve" smooth="yes"/>
      <point x="548" y="714" type="line"/>
    </contour>
    <contour>
      <point x="565" y="689" type="line" smooth="yes"/>
      <point x="611" y="689"/>
      <point x="621" y="674"/>
      <point x="621" y="608" type="curve"/>
      <point x="640" y="608"/>
      <point x="651" y="619"/>
      <point x="651" y="638" type="curve" smooth="yes"/>
      <point x="651" y="687"/>
      <point x="624" y="714"/>
      <point x="572" y="714" type="curve" smooth="yes"/>
      <point x="534" y="714" type="line"/>
      <point x="534" y="689" type="line"/>
    </contour>
  </outline>
</glyph>
<glyph name="uni0545" format="2">
  <advance width="561"/>
  <unicode hex="0545"/>
  <note>
uni0545
</note>
  <outline>
    <contour>
      <point x="276" y="-9" type="curve" smooth="yes"/>
      <point x="419" y="-9"/>
      <point x="520" y="70"/>
      <point x="520" y="198" type="curve" smooth="yes"/>
      <point x="520" y="323"/>
      <point x="436" y="372"/>
      <point x="355" y="381" type="curve"/>
      <point x="426" y="397"/>
      <point x="485" y="445"/>
      <point x="485" y="548" type="curve" smooth="yes"/>
      <point x="485" y="654"/>
      <point x="412" y="726"/>
      <point x="293" y="726" type="curve" smooth="yes"/>
      <point x="139" y="726"/>
      <point x="95" y="636"/>
      <point x="95" y="575" type="curve" smooth="yes"/>
      <point x="95" y="554"/>
      <point x="104" y="544"/>
      <point x="122" y="544" type="curve"/>
      <point x="122" y="621"/>
      <point x="152" y="701"/>
      <point x="293" y="701" type="curve" smooth="yes"/>
      <point x="398" y="701"/>
      <point x="457" y="636"/>
      <point x="457" y="548" type="curve" smooth="yes"/>
      <point x="457" y="449"/>
      <point x="397" y="394"/>
      <point x="286" y="394" type="curve" smooth="yes"/>
      <point x="39" y="394" type="line"/>
      <point x="39" y="369" type="line"/>
      <point x="286" y="369" type="line" smooth="yes"/>
      <point x="409" y="369"/>
      <point x="492" y="312"/>
      <point x="492" y="201" type="curve" smooth="yes"/>
      <point x="492" y="82"/>
      <point x="396" y="16"/>
      <point x="275" y="16" type="curve" smooth="yes"/>
      <point x="161" y="16"/>
      <point x="75" y="58"/>
      <point x="75" y="178" type="curve"/>
      <point x="55" y="178"/>
      <point x="47" y="169"/>
      <point x="47" y="155" type="curve" smooth="yes"/>
      <point x="47" y="44"/>
      <point x="140" y="-9"/>
    </contour>
  </outline>
</glyph>
<glyph name="uni0546" format="2">
  <advance width="535"/>
  <unicode hex="0546"/>
  <note>
uni0546
</note>
  <outline>
    <contour>
      <point x="263" y="-10" type="curve" smooth="yes"/>
      <point x="381" y="-10"/>
      <point x="463" y="51"/>
      <point x="463" y="214" type="curve" smooth="yes"/>
      <point x="463" y="415" type="line"/>
      <point x="435" y="415" type="line"/>
      <point x="435" y="210" type="line" smooth="yes"/>
      <point x="435" y="76"/>
      <point x="369" y="15"/>
      <point x="265" y="15" type="curve" smooth="yes"/>
      <point x="144" y="15"/>
      <point x="97" y="96"/>
      <point x="97" y="228" type="curve" smooth="yes"/>
      <point x="97" y="377"/>
      <point x="131" y="497"/>
      <point x="196" y="633" type="curve"/>
      <point x="162" y="621" type="line"/>
      <point x="106" y="506"/>
      <point x="69" y="372"/>
      <point x="69" y="228" type="curve" smooth="yes"/>
      <point x="69" y="78"/>
      <point x="128" y="-10"/>
    </contour>
    <contour>
      <point x="196" y="633" type="line"/>
      <point x="90" y="633"/>
      <point x="62" y="661"/>
      <point x="62" y="754" type="curve"/>
      <point x="43" y="754"/>
      <point x="34" y="739"/>
      <point x="34" y="724" type="curve" smooth="yes"/>
      <point x="34" y="651"/>
      <point x="81" y="608"/>
      <point x="181" y="608" type="curve"/>
    </contour>
  </outline>
</glyph>
<glyph name="uni0547" format="2">
  <advance width="584"/>
  <unicode hex="0547"/>
  <note>
uni0547
</note>
  <outline>
    <contour>
      <point x="30" y="673" type="line"/>
      <point x="75" y="693"/>
      <point x="118" y="700"/>
      <point x="146" y="700" type="curve" smooth="yes"/>
      <point x="276" y="700"/>
      <point x="308" y="597"/>
      <point x="443" y="597" type="curve" smooth="yes"/>
      <point x="533" y="597"/>
      <point x="568" y="643"/>
      <point x="568" y="714" type="curve"/>
      <point x="540" y="714" type="line"/>
      <point x="540" y="658"/>
      <point x="516" y="622"/>
      <point x="442" y="622" type="curve" smooth="yes"/>
      <point x="325" y="622"/>
      <point x="288" y="725"/>
      <point x="146" y="725" type="curve" smooth="yes"/>
      <point x="109" y="725"/>
      <point x="70" y="716"/>
      <point x="29" y="698" type="curve"/>
    </contour>
    <contour>
      <point x="350" y="629" type="curve"/>
      <point x="322" y="639" type="line"/>
      <point x="117" y="501"/>
      <point x="51" y="346"/>
      <point x="51" y="235" type="curve" smooth="yes"/>
      <point x="51" y="91"/>
      <point x="123" y="-11"/>
      <point x="273" y="-11" type="curve" smooth="yes"/>
      <point x="406" y="-11"/>
      <point x="498" y="65"/>
      <point x="498" y="213" type="curve" smooth="yes"/>
      <point x="498" y="295" type="line"/>
      <point x="470" y="295" type="line"/>
      <point x="470" y="209" type="line" smooth="yes"/>
      <point x="470" y="80"/>
      <point x="394" y="14"/>
      <point x="275" y="14" type="curve" smooth="yes"/>
      <point x="139" y="14"/>
      <point x="79" y="105"/>
      <point x="79" y="233" type="curve" smooth="yes"/>
      <point x="79" y="347"/>
      <point x="145" y="491"/>
    </contour>
  </outline>
</glyph>
<glyph name="uni0548" format="2">
  <advance width="631"/>
  <unicode hex="0548"/>
  <note>
uni0548
</note>
  <anchor x="312" y="714" name="top"/>
  <outline>
    <contour>
      <point x="166" y="0" type="line"/>
      <point x="166" y="20" type="line"/>
      <point x="116" y="20"/>
      <point x="110" y="31"/>
      <point x="110" y="108" type="curve" smooth="yes"/>
      <point x="110" y="495" type="line" smooth="yes"/>
      <point x="110" y="608"/>
      <point x="172" y="699"/>
      <point x="313" y="699" type="curve" smooth="yes"/>
      <point x="437" y="699"/>
      <point x="513" y="638"/>
      <point x="513" y="504" type="curve" smooth="yes"/>
      <point x="513" y="0" type="line"/>
      <point x="597" y="0" type="line"/>
      <point x="597" y="20" type="line"/>
      <point x="547" y="20"/>
      <point x="541" y="31"/>
      <point x="541" y="108" type="curve" smooth="yes"/>
      <point x="541" y="500" type="line" smooth="yes"/>
      <point x="541" y="663"/>
      <point x="449" y="724"/>
      <point x="311" y="724" type="curve" smooth="yes"/>
      <point x="156" y="724"/>
      <point x="82" y="626"/>
      <point x="82" y="496" type="curve" smooth="yes"/>
      <point x="82" y="0" type="line"/>
    </contour>
  </outline>
</glyph>
<glyph name="uni0549" format="2">
  <advance width="534"/>
  <unicode hex="0549"/>
  <note>
uni0549
</note>
  <outline>
    <contour>
      <point x="201" y="98" type="curve"/>
      <point x="229" y="88" type="line"/>
      <point x="434" y="226"/>
      <point x="492" y="367"/>
      <point x="492" y="478" type="curve" smooth="yes"/>
      <point x="492" y="622"/>
      <point x="420" y="724"/>
      <point x="270" y="724" type="curve" smooth="yes"/>
      <point x="137" y="724"/>
      <point x="45" y="663"/>
      <point x="45" y="500" type="curve" smooth="yes"/>
      <point x="45" y="478" type="line"/>
      <point x="73" y="478" type="line"/>
      <point x="73" y="504" type="line" smooth="yes"/>
      <point x="73" y="648"/>
      <point x="149" y="699"/>
      <point x="268" y="699" type="curve" smooth="yes"/>
      <point x="404" y="699"/>
      <point x="464" y="608"/>
      <point x="464" y="480" type="curve" smooth="yes"/>
      <point x="464" y="366"/>
      <point x="406" y="236"/>
    </contour>
    <contour>
      <point x="483" y="-11" type="curve"/>
      <point x="483" y="14" type="line"/>
      <point x="291" y="26"/>
      <point x="164" y="120"/>
      <point x="51" y="255" type="curve"/>
      <point x="25" y="238" type="line"/>
      <point x="139" y="104"/>
      <point x="288" y="1"/>
    </contour>
  </outline>
</glyph>
<glyph name="uni054A" format="2">
  <advance width="618"/>
  <unicode hex="054A"/>
  <note>
uni054A
</note>
  <outline>
    <contour>
      <point x="529" y="108" type="curve" smooth="yes"/>
      <point x="529" y="495" type="line" smooth="yes"/>
      <point x="529" y="663"/>
      <point x="427" y="724"/>
      <point x="289" y="724" type="curve" smooth="yes"/>
      <point x="134" y="724"/>
      <point x="51" y="626"/>
      <point x="51" y="496" type="curve" smooth="yes"/>
      <point x="51" y="320" type="line"/>
      <point x="79" y="320" type="line"/>
      <point x="79" y="495" type="line" smooth="yes"/>
      <point x="79" y="608"/>
      <point x="150" y="699"/>
      <point x="291" y="699" type="curve" smooth="yes"/>
      <point x="415" y="699"/>
      <point x="501" y="638"/>
      <point x="501" y="496" type="curve" smooth="yes"/>
      <point x="501" y="0" type="line"/>
      <point x="585" y="0" type="line"/>
      <point x="585" y="20" type="line"/>
      <point x="535" y="20"/>
      <point x="529" y="31"/>
    </contour>
    <contour>
      <point x="276" y="705" type="line"/>
      <point x="276" y="178" type="line"/>
      <point x="304" y="178" type="line"/>
      <point x="304" y="705" type="line"/>
    </contour>
  </outline>
</glyph>
<glyph name="uni054B" format="2">
  <advance width="509"/>
  <unicode hex="054B"/>
  <note>
uni054B
</note>
  <outline>
    <contour>
      <point x="39" y="0" type="line"/>
      <point x="67" y="0" type="line"/>
      <point x="67" y="179" type="line"/>
      <point x="39" y="179" type="line"/>
    </contour>
    <contour>
      <point x="453" y="0" type="line"/>
      <point x="481" y="0" type="line"/>
      <point x="481" y="13" type="line" smooth="yes"/>
      <point x="481" y="99"/>
      <point x="432" y="123"/>
      <point x="372" y="123" type="curve" smooth="yes"/>
      <point x="53" y="123" type="line"/>
      <point x="53" y="98" type="line"/>
      <point x="372" y="98" type="line" smooth="yes"/>
      <point x="417" y="98"/>
      <point x="453" y="74"/>
      <point x="453" y="14" type="curve" smooth="yes"/>
    </contour>
    <contour>
      <point x="199" y="148" type="curve"/>
      <point x="222" y="166" type="line"/>
      <point x="221" y="221"/>
      <point x="208" y="245"/>
      <point x="137" y="311" type="curve" smooth="yes"/>
      <point x="81" y="363"/>
      <point x="51" y="420"/>
      <point x="51" y="499" type="curve" smooth="yes"/>
      <point x="51" y="636"/>
      <point x="129" y="704"/>
      <point x="243" y="704" type="curve" smooth="yes"/>
      <point x="359" y="704"/>
      <point x="433" y="634"/>
      <point x="433" y="489" type="curve" smooth="yes"/>
      <point x="433" y="355"/>
      <point x="337" y="245"/>
      <point x="210" y="161" type="curve" smooth="yes"/>
      <point x="177" y="139"/>
      <point x="124" y="123"/>
      <point x="65" y="123" type="curve"/>
      <point x="188" y="123" type="line"/>
      <point x="331" y="199"/>
      <point x="460" y="337"/>
      <point x="460" y="489" type="curve" smooth="yes"/>
      <point x="460" y="647"/>
      <point x="376" y="729"/>
      <point x="244" y="729" type="curve" smooth="yes"/>
      <point x="109" y="729"/>
      <point x="24" y="645"/>
      <point x="24" y="499" type="curve" smooth="yes"/>
      <point x="24" y="422"/>
      <point x="49" y="358"/>
      <point x="119" y="292" type="curve" smooth="yes"/>
      <point x="182" y="233"/>
      <point x="199" y="212"/>
    </contour>
  </outline>
</glyph>
<glyph name="uni054C" format="2">
  <advance width="700"/>
  <unicode hex="054C"/>
  <note>
uni054C
</note>
  <outline>
    <contour>
      <point x="166" y="0" type="line"/>
      <point x="166" y="20" type="line"/>
      <point x="116" y="20"/>
      <point x="110" y="31"/>
      <point x="110" y="108" type="curve" smooth="yes"/>
      <point x="110" y="495" type="line" smooth="yes"/>
      <point x="110" y="618"/>
      <point x="172" y="699"/>
      <point x="313" y="699" type="curve" smooth="yes"/>
      <point x="437" y="699"/>
      <point x="513" y="638"/>
      <point x="513" y="504" type="curve" smooth="yes"/>
      <point x="513" y="0" type="line"/>
      <point x="597" y="0" type="line"/>
      <point x="597" y="20" type="line"/>
      <point x="547" y="20"/>
      <point x="541" y="31"/>
      <point x="541" y="108" type="curve" smooth="yes"/>
      <point x="541" y="500" type="line" smooth="yes"/>
      <point x="541" y="663"/>
      <point x="449" y="724"/>
      <point x="311" y="724" type="curve" smooth="yes"/>
      <point x="156" y="724"/>
      <point x="82" y="636"/>
      <point x="82" y="496" type="curve" smooth="yes"/>
      <point x="82" y="0" type="line"/>
    </contour>
    <contour>
      <point x="523" y="387" type="curve"/>
      <point x="523" y="360" type="line"/>
      <point x="539" y="367"/>
      <point x="558" y="370"/>
      <point x="583" y="370" type="curve" smooth="yes"/>
      <point x="628" y="370"/>
      <point x="654" y="346"/>
      <point x="654" y="286" type="curve" smooth="yes"/>
      <point x="654" y="220" type="line"/>
      <point x="682" y="220" type="line"/>
      <point x="682" y="285" type="line" smooth="yes"/>
      <point x="682" y="371"/>
      <point x="643" y="395"/>
      <point x="583" y="395" type="curve" smooth="yes"/>
      <point x="559" y="395"/>
      <point x="540" y="392"/>
    </contour>
  </outline>
</glyph>
<glyph name="uni054D" format="2">
  <advance width="631"/>
  <unicode hex="054D"/>
  <note>
uni054D
</note>
  <outline>
    <contour>
      <point x="464" y="714" type="line"/>
      <point x="464" y="694" type="line"/>
      <point x="514" y="694"/>
      <point x="520" y="683"/>
      <point x="520" y="606" type="curve" smooth="yes"/>
      <point x="520" y="219" type="line" smooth="yes"/>
      <point x="520" y="106"/>
      <point x="458" y="15"/>
      <point x="317" y="15" type="curve" smooth="yes"/>
      <point x="193" y="15"/>
      <point x="117" y="76"/>
      <point x="117" y="210" type="curve" smooth="yes"/>
      <point x="117" y="714" type="line"/>
      <point x="33" y="714" type="line"/>
      <point x="33" y="694" type="line"/>
      <point x="83" y="694"/>
      <point x="89" y="683"/>
      <point x="89" y="606" type="curve" smooth="yes"/>
      <point x="89" y="214" type="line" smooth="yes"/>
      <point x="89" y="51"/>
      <point x="181" y="-10"/>
      <point x="319" y="-10" type="curve" smooth="yes"/>
      <point x="474" y="-10"/>
      <point x="548" y="88"/>
      <point x="548" y="218" type="curve" smooth="yes"/>
      <point x="548" y="714" type="line"/>
    </contour>
  </outline>
</glyph>
<glyph name="uni054E" format="2">
  <advance width="638"/>
  <unicode hex="054E"/>
  <note>
uni054E
</note>
  <outline>
    <contour>
      <point x="381" y="714" type="line"/>
      <point x="381" y="694" type="line"/>
      <point x="431" y="694"/>
      <point x="437" y="683"/>
      <point x="437" y="606" type="curve" smooth="yes"/>
      <point x="437" y="389" type="line" smooth="yes"/>
      <point x="437" y="276"/>
      <point x="387" y="185"/>
      <point x="274" y="185" type="curve" smooth="yes"/>
      <point x="175" y="185"/>
      <point x="113" y="246"/>
      <point x="113" y="340" type="curve" smooth="yes"/>
      <point x="113" y="477" type="line"/>
      <point x="29" y="477" type="line"/>
      <point x="29" y="457" type="line"/>
      <point x="79" y="457"/>
      <point x="85" y="446"/>
      <point x="85" y="369" type="curve" smooth="yes"/>
      <point x="85" y="340" type="line" smooth="yes"/>
      <point x="85" y="221"/>
      <point x="162" y="160"/>
      <point x="276" y="160" type="curve" smooth="yes"/>
      <point x="354" y="160"/>
      <point x="407" y="197"/>
      <point x="437" y="265" type="curve"/>
      <point x="440" y="265" type="line"/>
      <point x="438" y="233"/>
      <point x="437" y="200"/>
      <point x="437" y="168" type="curve" smooth="yes"/>
      <point x="437" y="0" type="line"/>
      <point x="465" y="0" type="line"/>
      <point x="465" y="714" type="line"/>
    </contour>
    <contour>
      <point x="451" y="0" type="line"/>
      <point x="632" y="0" type="line"/>
      <point x="632" y="25" type="line"/>
      <point x="451" y="25" type="line"/>
    </contour>
  </outline>
</glyph>
<glyph name="uni054F" format="2">
  <advance width="524"/>
  <unicode hex="054F"/>
  <note>
uni054F
</note>
  <outline>
    <contour>
      <point x="270" y="-10" type="curve" smooth="yes"/>
      <point x="416" y="-10"/>
      <point x="487" y="67"/>
      <point x="487" y="169" type="curve" smooth="yes"/>
      <point x="487" y="259"/>
      <point x="443" y="300"/>
      <point x="268" y="383" type="curve" smooth="yes"/>
      <point x="123" y="452"/>
      <point x="94" y="492"/>
      <point x="94" y="560" type="curve" smooth="yes"/>
      <point x="94" y="629"/>
      <point x="148" y="699"/>
      <point x="255" y="699" type="curve" smooth="yes"/>
      <point x="354" y="699"/>
      <point x="410" y="661"/>
      <point x="410" y="575" type="curve"/>
      <point x="422" y="575"/>
      <point x="431" y="589"/>
      <point x="431" y="614" type="curve" smooth="yes"/>
      <point x="431" y="679"/>
      <point x="369" y="724"/>
      <point x="257" y="724" type="curve" smooth="yes"/>
      <point x="133" y="724"/>
      <point x="66" y="650"/>
      <point x="66" y="559" type="curve" smooth="yes"/>
      <point x="66" y="480"/>
      <point x="100" y="427"/>
      <point x="255" y="358" type="curve" smooth="yes"/>
      <point x="414" y="287"/>
      <point x="459" y="244"/>
      <point x="459" y="168" type="curve" smooth="yes"/>
      <point x="459" y="78"/>
      <point x="398" y="15"/>
      <point x="269" y="15" type="curve" smooth="yes"/>
      <point x="136" y="15"/>
      <point x="62" y="66"/>
      <point x="62" y="166" type="curve"/>
      <point x="48" y="166"/>
      <point x="41" y="150"/>
      <point x="41" y="126" type="curve" smooth="yes"/>
      <point x="41" y="59"/>
      <point x="114" y="-10"/>
    </contour>
  </outline>
</glyph>
<glyph name="uni0550" format="2">
  <advance width="563"/>
  <unicode hex="0550"/>
  <note>
uni0550
</note>
  <outline>
    <contour>
      <point x="291" y="724" type="curve" smooth="yes"/>
      <point x="156" y="724"/>
      <point x="82" y="626"/>
      <point x="82" y="496" type="curve" smooth="yes"/>
      <point x="82" y="0" type="line"/>
      <point x="166" y="0" type="line"/>
      <point x="166" y="20" type="line"/>
      <point x="116" y="20"/>
      <point x="110" y="31"/>
      <point x="110" y="108" type="curve" smooth="yes"/>
      <point x="110" y="495" type="line" smooth="yes"/>
      <point x="110" y="608"/>
      <point x="172" y="699"/>
      <point x="293" y="699" type="curve" smooth="yes"/>
      <point x="407" y="699"/>
      <point x="483" y="638"/>
      <point x="483" y="504" type="curve" smooth="yes"/>
      <point x="483" y="349" type="line"/>
      <point x="511" y="349" type="line"/>
      <point x="511" y="500" type="line" smooth="yes"/>
      <point x="511" y="663"/>
      <point x="419" y="724"/>
    </contour>
  </outline>
</glyph>
<glyph name="uni0551" format="2">
  <advance width="500"/>
  <unicode hex="0551"/>
  <note>
uni0551
</note>
  <outline>
    <contour>
      <point x="291" y="388" type="curve"/>
      <point x="291" y="390" type="line"/>
      <point x="366" y="411"/>
      <point x="441" y="458"/>
      <point x="441" y="564" type="curve" smooth="yes"/>
      <point x="441" y="660"/>
      <point x="368" y="726"/>
      <point x="249" y="726" type="curve" smooth="yes"/>
      <point x="100" y="726"/>
      <point x="51" y="625"/>
      <point x="51" y="564" type="curve" smooth="yes"/>
      <point x="51" y="478"/>
      <point x="93" y="416"/>
      <point x="205" y="385" type="curve"/>
      <point x="205" y="383" type="line"/>
      <point x="30" y="329" type="line"/>
      <point x="37" y="304" type="line"/>
      <point x="246" y="373" type="line"/>
      <point x="372" y="348"/>
      <point x="438" y="293"/>
      <point x="438" y="182" type="curve" smooth="yes"/>
      <point x="438" y="82"/>
      <point x="352" y="16"/>
      <point x="241" y="16" type="curve" smooth="yes"/>
      <point x="131" y="16"/>
      <point x="58" y="53"/>
      <point x="58" y="178" type="curve"/>
      <point x="38" y="178"/>
      <point x="32" y="165"/>
      <point x="32" y="148" type="curve" smooth="yes"/>
      <point x="32" y="44"/>
      <point x="116" y="-9"/>
      <point x="242" y="-9" type="curve" smooth="yes"/>
      <point x="375" y="-9"/>
      <point x="466" y="70"/>
      <point x="466" y="185" type="curve" smooth="yes"/>
      <point x="466" y="307"/>
      <point x="391" y="366"/>
    </contour>
    <contour>
      <point x="79" y="564" type="curve" smooth="yes"/>
      <point x="79" y="611"/>
      <point x="118" y="701"/>
      <point x="249" y="701" type="curve" smooth="yes"/>
      <point x="354" y="701"/>
      <point x="413" y="642"/>
      <point x="413" y="561" type="curve" smooth="yes"/>
      <point x="413" y="471"/>
      <point x="357" y="434"/>
      <point x="244" y="399" type="curve"/>
      <point x="112" y="434"/>
      <point x="79" y="484"/>
    </contour>
  </outline>
</glyph>
<glyph name="uni0552" format="2">
  <advance width="489"/>
  <unicode hex="0552"/>
  <note>
uni0552
</note>
  <outline>
    <contour>
      <point x="112" y="536" type="line"/>
      <point x="112" y="511" type="line"/>
      <point x="169" y="511" type="line" smooth="yes"/>
      <point x="247" y="511"/>
      <point x="262" y="496"/>
      <point x="317" y="368" type="curve" smooth="yes"/>
      <point x="381" y="219"/>
      <point x="394" y="214"/>
      <point x="452" y="214" type="curve" smooth="yes"/>
      <point x="479" y="214" type="line"/>
      <point x="479" y="239" type="line"/>
      <point x="453" y="239" type="line" smooth="yes"/>
      <point x="408" y="239"/>
      <point x="400" y="245"/>
      <point x="342" y="379" type="curve" smooth="yes"/>
      <point x="281" y="519"/>
      <point x="257" y="536"/>
      <point x="166" y="536" type="curve" smooth="yes"/>
    </contour>
    <contour>
      <point x="117" y="103" type="curve" smooth="yes"/>
      <point x="117" y="714" type="line"/>
      <point x="33" y="714" type="line"/>
      <point x="33" y="694" type="line"/>
      <point x="83" y="694"/>
      <point x="89" y="688"/>
      <point x="89" y="611" type="curve" smooth="yes"/>
      <point x="89" y="0" type="line"/>
      <point x="173" y="0" type="line"/>
      <point x="173" y="20" type="line"/>
      <point x="123" y="20"/>
      <point x="117" y="26"/>
    </contour>
  </outline>
</glyph>
<glyph name="uni0553" format="2">
  <advance width="592"/>
  <unicode hex="0553"/>
  <note>
uni0553
</note>
  <outline>
    <contour>
      <point x="326" y="134" type="line" smooth="yes"/>
      <point x="477" y="134"/>
      <point x="557" y="208"/>
      <point x="557" y="363" type="curve" smooth="yes"/>
      <point x="557" y="493"/>
      <point x="482" y="590"/>
      <point x="332" y="590" type="curve" smooth="yes"/>
      <point x="310" y="590" type="line"/>
      <point x="310" y="714" type="line"/>
      <point x="230" y="714" type="line"/>
      <point x="230" y="694" type="line"/>
      <point x="273" y="694"/>
      <point x="282" y="692"/>
      <point x="282" y="605" type="curve" smooth="yes"/>
      <point x="282" y="590" type="line"/>
      <point x="260" y="590" type="line" smooth="yes"/>
      <point x="110" y="590"/>
      <point x="35" y="493"/>
      <point x="35" y="363" type="curve" smooth="yes"/>
      <point x="35" y="208"/>
      <point x="115" y="134"/>
      <point x="260" y="134" type="curve" smooth="yes"/>
      <point x="282" y="134" type="line"/>
      <point x="282" y="0" type="line"/>
      <point x="362" y="0" type="line"/>
      <point x="362" y="20" type="line"/>
      <point x="315" y="20"/>
      <point x="310" y="24"/>
      <point x="310" y="101" type="curve" smooth="yes"/>
      <point x="310" y="134" type="line"/>
    </contour>
    <contour>
      <point x="282" y="159" type="line"/>
      <point x="260" y="159" type="line" smooth="yes"/>
      <point x="125" y="159"/>
      <point x="63" y="226"/>
      <point x="63" y="363" type="curve" smooth="yes"/>
      <point x="63" y="487"/>
      <point x="125" y="565"/>
      <point x="260" y="565" type="curve" smooth="yes"/>
      <point x="282" y="565" type="line"/>
    </contour>
    <contour>
      <point x="310" y="565" type="line"/>
      <point x="332" y="565" type="line" smooth="yes"/>
      <point x="467" y="565"/>
      <point x="529" y="487"/>
      <point x="529" y="363" type="curve" smooth="yes"/>
      <point x="529" y="226"/>
      <point x="467" y="159"/>
      <point x="326" y="159" type="curve" smooth="yes"/>
      <point x="310" y="159" type="line"/>
    </contour>
  </outline>
</glyph>
<glyph name="uni0554" format="2">
  <advance width="501"/>
  <unicode hex="0554"/>
  <note>
uni0554
</note>
  <outline>
    <contour>
      <point x="109" y="0" type="line"/>
      <point x="137" y="0" type="line"/>
      <point x="137" y="352" type="line"/>
      <point x="264" y="352" type="line" smooth="yes"/>
      <point x="376" y="352"/>
      <point x="460" y="413"/>
      <point x="460" y="537" type="curve" smooth="yes"/>
      <point x="460" y="655"/>
      <point x="397" y="724"/>
      <point x="281" y="724" type="curve" smooth="yes"/>
      <point x="173" y="724"/>
      <point x="109" y="651"/>
      <point x="109" y="520" type="curve" smooth="yes"/>
    </contour>
    <contour>
      <point x="266" y="377" type="curve" smooth="yes"/>
      <point x="137" y="377" type="line"/>
      <point x="137" y="520" type="line" smooth="yes"/>
      <point x="137" y="629"/>
      <point x="184" y="699"/>
      <point x="280" y="699" type="curve" smooth="yes"/>
      <point x="384" y="699"/>
      <point x="432" y="637"/>
      <point x="432" y="535" type="curve" smooth="yes"/>
      <point x="432" y="426"/>
      <point x="355" y="377"/>
    </contour>
    <contour>
      <point x="11" y="220" type="line"/>
      <point x="460" y="220" type="line"/>
      <point x="460" y="245" type="line"/>
      <point x="11" y="245" type="line"/>
    </contour>
  </outline>
</glyph>
<glyph name="uni0555" format="2">
  <advance width="658"/>
  <unicode hex="0555"/>
  <note>
uni0555
</note>
  <anchor x="329" y="714" name="top"/>
  <outline>
    <contour>
      <point x="329" y="-10" type="curve" smooth="yes"/>
      <point x="531" y="-10"/>
      <point x="613" y="135"/>
      <point x="613" y="358" type="curve" smooth="yes"/>
      <point x="613" y="590"/>
      <point x="533" y="725"/>
      <point x="330" y="725" type="curve" smooth="yes"/>
      <point x="143" y="725"/>
      <point x="44" y="592"/>
      <point x="44" y="359" type="curve" smooth="yes"/>
      <point x="44" y="125"/>
      <point x="139" y="-10"/>
    </contour>
    <contour>
      <point x="329" y="15" type="curve" smooth="yes"/>
      <point x="158" y="15"/>
      <point x="72" y="143"/>
      <point x="72" y="358" type="curve" smooth="yes"/>
      <point x="72" y="573"/>
      <point x="158" y="700"/>
      <point x="330" y="700" type="curve" smooth="yes"/>
      <point x="516" y="700"/>
      <point x="585" y="573"/>
      <point x="585" y="358" type="curve" smooth="yes"/>
      <point x="585" y="145"/>
      <point x="510" y="15"/>
    </contour>
  </outline>
</glyph>
<glyph name="uni0556" format="2">
  <advance width="552"/>
  <unicode hex="0556"/>
  <note>
uni0556
</note>
  <outline>
    <contour>
      <point x="274" y="-10" type="curve" smooth="yes"/>
      <point x="431" y="-10"/>
      <point x="519" y="72"/>
      <point x="519" y="189" type="curve" smooth="yes"/>
      <point x="519" y="318"/>
      <point x="450" y="385"/>
      <point x="278" y="402" type="curve" smooth="yes"/>
      <point x="126" y="417"/>
      <point x="86" y="471"/>
      <point x="86" y="564" type="curve" smooth="yes"/>
      <point x="86" y="642"/>
      <point x="138" y="699"/>
      <point x="263" y="699" type="curve"/>
      <point x="263" y="724" type="line"/>
      <point x="123" y="724"/>
      <point x="58" y="660"/>
      <point x="58" y="564" type="curve" smooth="yes"/>
      <point x="58" y="457"/>
      <point x="117" y="392"/>
      <point x="267" y="377" type="curve" smooth="yes"/>
      <point x="437" y="360"/>
      <point x="491" y="301"/>
      <point x="491" y="188" type="curve" smooth="yes"/>
      <point x="491" y="83"/>
      <point x="418" y="15"/>
      <point x="273" y="15" type="curve" smooth="yes"/>
      <point x="125" y="15"/>
      <point x="55" y="66"/>
      <point x="55" y="166" type="curve"/>
      <point x="38" y="166"/>
      <point x="27" y="155"/>
      <point x="27" y="141" type="curve" smooth="yes"/>
      <point x="27" y="57"/>
      <point x="102" y="-10"/>
    </contour>
    <contour>
      <point x="263" y="724" type="line"/>
      <point x="263" y="5" type="line"/>
      <point x="291" y="5" type="line"/>
      <point x="291" y="724" type="line"/>
    </contour>
  </outline>
</glyph>
<glyph name="uni0559" format="2">
  <advance width="166"/>
  <unicode hex="0559"/>
  <note>
uni0559
</note>
  <outline>
    <contour>
      <point x="122" y="549" type="curve"/>
      <point x="122" y="577" type="line"/>
      <point x="77" y="577"/>
      <point x="61" y="603"/>
      <point x="61" y="632" type="curve" smooth="yes"/>
      <point x="61" y="669"/>
      <point x="86" y="710"/>
      <point x="129" y="744" type="curve"/>
      <point x="114" y="760" type="line"/>
      <point x="69" y="726"/>
      <point x="36" y="678"/>
      <point x="36" y="632" type="curve" smooth="yes"/>
      <point x="36" y="582"/>
      <point x="64" y="549"/>
    </contour>
  </outline>
</glyph>
<glyph name="uni055A" format="2">
  <advance width="166"/>
  <unicode hex="055A"/>
  <note>
uni055A
</note>
  <outline>
    <contour>
      <point x="43" y="760" type="curve"/>
      <point x="43" y="732" type="line"/>
      <point x="88" y="732"/>
      <point x="104" y="706"/>
      <point x="104" y="677" type="curve" smooth="yes"/>
      <point x="104" y="640"/>
      <point x="79" y="599"/>
      <point x="36" y="565" type="curve"/>
      <point x="51" y="549" type="line"/>
      <point x="96" y="583"/>
      <point x="129" y="631"/>
      <point x="129" y="677" type="curve" smooth="yes"/>
      <point x="129" y="727"/>
      <point x="101" y="760"/>
    </contour>
  </outline>
</glyph>
<glyph name="uni055B" format="2">
  <advance width="189"/>
  <unicode hex="055B"/>
  <note>
uni055B
</note>
  <outline>
    <contour>
      <point x="51" y="603" type="line"/>
      <point x="71" y="603" type="line"/>
      <point x="102" y="679"/>
      <point x="126" y="745"/>
      <point x="143" y="806" type="curve"/>
      <point x="139" y="814" type="line"/>
      <point x="113" y="814" type="line"/>
      <point x="108" y="789"/>
      <point x="95" y="735"/>
      <point x="80" y="693" type="curve" smooth="yes"/>
      <point x="51" y="611" type="line"/>
    </contour>
  </outline>
</glyph>
<glyph name="uni055C" format="2">
  <advance width="223"/>
  <unicode hex="055C"/>
  <note>
uni055C
</note>
  <outline>
    <contour>
      <point x="72" y="603" type="curve"/>
      <point x="97" y="603" type="line"/>
      <point x="97" y="615" type="line" smooth="yes"/>
      <point x="97" y="654"/>
      <point x="112" y="671"/>
      <point x="149" y="694" type="curve" smooth="yes"/>
      <point x="204" y="728"/>
      <point x="212" y="740"/>
      <point x="212" y="814" type="curve"/>
      <point x="187" y="814" type="line"/>
      <point x="187" y="802" type="line" smooth="yes"/>
      <point x="187" y="748"/>
      <point x="177" y="738"/>
      <point x="135" y="712" type="curve" smooth="yes"/>
      <point x="80" y="678"/>
      <point x="72" y="661"/>
    </contour>
  </outline>
</glyph>
<glyph name="uni055D" format="2">
  <advance width="189"/>
  <unicode hex="055D"/>
  <note>
uni055D
</note>
  <outline>
    <contour>
      <point x="137" y="603" type="line"/>
      <point x="137" y="611" type="line"/>
      <point x="108" y="693" type="line" smooth="yes"/>
      <point x="93" y="735"/>
      <point x="80" y="789"/>
      <point x="75" y="814" type="curve"/>
      <point x="49" y="814" type="line"/>
      <point x="45" y="806" type="line"/>
      <point x="62" y="745"/>
      <point x="86" y="679"/>
      <point x="117" y="603" type="curve"/>
    </contour>
  </outline>
</glyph>
<glyph name="uni055E" format="2">
  <advance width="310"/>
  <unicode hex="055E"/>
  <note>
uni055E
</note>
  <outline>
    <contour>
      <point x="66" y="681" type="curve"/>
      <point x="91" y="681" type="line"/>
      <point x="91" y="764"/>
      <point x="135" y="799"/>
      <point x="202" y="799" type="curve" smooth="yes"/>
      <point x="238" y="799"/>
      <point x="259" y="784"/>
      <point x="259" y="752" type="curve" smooth="yes"/>
      <point x="259" y="723"/>
      <point x="246" y="713"/>
      <point x="210" y="713" type="curve" smooth="yes"/>
      <point x="197" y="713"/>
      <point x="188" y="715"/>
      <point x="179" y="718" type="curve"/>
      <point x="179" y="696"/>
      <point x="190" y="688"/>
      <point x="217" y="688" type="curve" smooth="yes"/>
      <point x="260" y="688"/>
      <point x="287" y="710"/>
      <point x="287" y="752" type="curve" smooth="yes"/>
      <point x="287" y="796"/>
      <point x="259" y="824"/>
      <point x="202" y="824" type="curve" smooth="yes"/>
      <point x="119" y="824"/>
      <point x="66" y="774"/>
    </contour>
  </outline>
</glyph>
<glyph name="uni055F" format="2">
  <advance width="356"/>
  <unicode hex="055F"/>
  <note>
uni055F
</note>
  <outline>
    <contour>
      <point x="151" y="612" type="curve" smooth="yes"/>
      <point x="320" y="612" type="line"/>
      <point x="320" y="637" type="line"/>
      <point x="156" y="637" type="line" smooth="yes"/>
      <point x="93" y="637"/>
      <point x="74" y="660"/>
      <point x="74" y="693" type="curve" smooth="yes"/>
      <point x="74" y="731"/>
      <point x="99" y="752"/>
      <point x="134" y="752" type="curve" smooth="yes"/>
      <point x="148" y="752"/>
      <point x="162" y="748"/>
      <point x="172" y="743" type="curve"/>
      <point x="172" y="764"/>
      <point x="159" y="777"/>
      <point x="131" y="777" type="curve" smooth="yes"/>
      <point x="85" y="777"/>
      <point x="46" y="745"/>
      <point x="46" y="693" type="curve" smooth="yes"/>
      <point x="46" y="643"/>
      <point x="81" y="612"/>
    </contour>
  </outline>
</glyph>
<glyph name="uni0560" format="2">
  <advance width="824"/>
  <unicode hex="0560"/>
  <note>
uni0561
</note>
  <anchor x="413" y="492" name="top"/>
  <outline>
    <contour>
      <point x="189" y="0" type="line"/>
      <point x="189" y="20" type="line"/>
      <point x="127" y="20"/>
      <point x="124" y="24"/>
      <point x="124" y="94" type="curve" smooth="yes"/>
      <point x="124" y="290" type="line" smooth="yes"/>
      <point x="124" y="387"/>
      <point x="173" y="473"/>
      <point x="273" y="473" type="curve" smooth="yes"/>
      <point x="367" y="473"/>
      <point x="401" y="418"/>
      <point x="401" y="321" type="curve" smooth="yes"/>
      <point x="401" y="0" type="line"/>
      <point x="494" y="0" type="line"/>
      <point x="494" y="20" type="line"/>
      <point x="433" y="20"/>
      <point x="429" y="24"/>
      <point x="429" y="94" type="curve" smooth="yes"/>
      <point x="429" y="305" type="line" smooth="yes"/>
      <point x="429" y="399"/>
      <point x="474" y="474"/>
      <point x="580" y="474" type="curve" smooth="yes"/>
      <point x="670" y="474"/>
      <point x="706" y="419"/>
      <point x="706" y="321" type="curve" smooth="yes"/>
      <point x="706" y="0" type="line"/>
      <point x="799" y="0" type="line"/>
      <point x="799" y="20" type="line"/>
      <point x="738" y="20"/>
      <point x="734" y="24"/>
      <point x="734" y="94" type="curve" smooth="yes"/>
      <point x="734" y="317" type="line" smooth="yes"/>
      <point x="734" y="434"/>
      <point x="687" y="498"/>
      <point x="580" y="498" type="curve" smooth="yes"/>
      <point x="491" y="498"/>
      <point x="443" y="451"/>
      <point x="422" y="397" type="curve"/>
      <point x="419" y="397" type="line"/>
      <point x="404" y="451"/>
      <point x="370" y="498"/>
      <point x="279" y="498" type="curve" smooth="yes"/>
      <point x="209" y="498"/>
      <point x="153" y="466"/>
      <point x="128" y="399" type="curve"/>
      <point x="123" y="399" type="line"/>
      <point x="120" y="492" type="line"/>
      <point x="31" y="492" type="line"/>
      <point x="31" y="472" type="line"/>
      <point x="92" y="472"/>
      <point x="96" y="467"/>
      <point x="96" y="398" type="curve" smooth="yes"/>
      <point x="96" y="0" type="line"/>
    </contour>
  </outline>
</glyph>
<glyph name="uni0561" format="2">
  <advance width="824"/>
  <unicode hex="0561"/>
  <note>
uni0561
</note>
  <anchor x="409" y="492" name="top"/>
  <outline>
    <contour>
      <point x="635" y="492" type="line"/>
      <point x="635" y="472" type="line"/>
      <point x="697" y="472"/>
      <point x="700" y="468"/>
      <point x="700" y="398" type="curve" smooth="yes"/>
      <point x="700" y="202" type="line" smooth="yes"/>
      <point x="700" y="105"/>
      <point x="651" y="19"/>
      <point x="551" y="19" type="curve" smooth="yes"/>
      <point x="457" y="19"/>
      <point x="423" y="74"/>
      <point x="423" y="171" type="curve" smooth="yes"/>
      <point x="423" y="492" type="line"/>
      <point x="330" y="492" type="line"/>
      <point x="330" y="472" type="line"/>
      <point x="391" y="472"/>
      <point x="395" y="468"/>
      <point x="395" y="398" type="curve" smooth="yes"/>
      <point x="395" y="187" type="line" smooth="yes"/>
      <point x="395" y="93"/>
      <point x="350" y="18"/>
      <point x="244" y="18" type="curve" smooth="yes"/>
      <point x="154" y="18"/>
      <point x="118" y="73"/>
      <point x="118" y="171" type="curve" smooth="yes"/>
      <point x="118" y="492" type="line"/>
      <point x="25" y="492" type="line"/>
      <point x="25" y="472" type="line"/>
      <point x="86" y="472"/>
      <point x="90" y="468"/>
      <point x="90" y="398" type="curve" smooth="yes"/>
      <point x="90" y="175" type="line" smooth="yes"/>
      <point x="90" y="58"/>
      <point x="137" y="-6"/>
      <point x="244" y="-6" type="curve" smooth="yes"/>
      <point x="333" y="-6"/>
      <point x="381" y="41"/>
      <point x="402" y="95" type="curve"/>
      <point x="405" y="95" type="line"/>
      <point x="420" y="41"/>
      <point x="454" y="-6"/>
      <point x="545" y="-6" type="curve" smooth="yes"/>
      <point x="615" y="-6"/>
      <point x="671" y="26"/>
      <point x="696" y="93" type="curve"/>
      <point x="701" y="93" type="line"/>
      <point x="704" y="0" type="line"/>
      <point x="793" y="0" type="line"/>
      <point x="793" y="20" type="line"/>
      <point x="732" y="20"/>
      <point x="728" y="25"/>
      <point x="728" y="94" type="curve" smooth="yes"/>
      <point x="728" y="492" type="line"/>
    </contour>
  </outline>
</glyph>
<glyph name="uni0562" format="2">
  <advance width="495"/>
  <unicode hex="0562"/>
  <note>
uni0562
</note>
  <outline>
    <contour>
      <point x="128" y="-171" type="curve" smooth="yes"/>
      <point x="128" y="290" type="line" smooth="yes"/>
      <point x="128" y="379"/>
      <point x="159" y="477"/>
      <point x="260" y="477" type="curve" smooth="yes"/>
      <point x="347" y="477"/>
      <point x="377" y="429"/>
      <point x="377" y="325" type="curve" smooth="yes"/>
      <point x="377" y="218" type="line"/>
      <point x="470" y="218" type="line"/>
      <point x="470" y="238" type="line"/>
      <point x="409" y="238"/>
      <point x="405" y="242"/>
      <point x="405" y="312" type="curve" smooth="yes"/>
      <point x="405" y="325" type="line" smooth="yes"/>
      <point x="405" y="442"/>
      <point x="362" y="502"/>
      <point x="263" y="502" type="curve" smooth="yes"/>
      <point x="197" y="502"/>
      <point x="157" y="471"/>
      <point x="131" y="410" type="curve"/>
      <point x="127" y="410" type="line"/>
      <point x="124" y="492" type="line"/>
      <point x="30" y="492" type="line"/>
      <point x="30" y="472" type="line"/>
      <point x="96" y="472"/>
      <point x="100" y="467"/>
      <point x="100" y="398" type="curve" smooth="yes"/>
      <point x="100" y="-265" type="line"/>
      <point x="193" y="-265" type="line"/>
      <point x="193" y="-245" type="line"/>
      <point x="132" y="-245"/>
      <point x="128" y="-241"/>
    </contour>
    <contour>
      <point x="110" y="0" type="line"/>
      <point x="404" y="0" type="line"/>
      <point x="404" y="25" type="line"/>
      <point x="110" y="25" type="line"/>
    </contour>
  </outline>
</glyph>
<glyph name="uni0563" format="2">
  <advance width="530"/>
  <unicode hex="0563"/>
  <note>
uni0563
</note>
  <outline>
    <contour>
      <point x="380" y="492" type="line"/>
      <point x="377" y="393" type="line"/>
      <point x="374" y="393" type="line"/>
      <point x="351" y="461"/>
      <point x="307" y="502"/>
      <point x="230" y="502" type="curve" smooth="yes"/>
      <point x="107" y="502"/>
      <point x="44" y="418"/>
      <point x="44" y="243" type="curve" smooth="yes"/>
      <point x="44" y="66"/>
      <point x="108" y="-10"/>
      <point x="219" y="-10" type="curve" smooth="yes"/>
      <point x="307" y="-10"/>
      <point x="352" y="35"/>
      <point x="376" y="101" type="curve"/>
      <point x="378" y="101" type="line"/>
      <point x="376" y="83"/>
      <point x="376" y="35"/>
      <point x="376" y="-31" type="curve" smooth="yes"/>
      <point x="376" y="-265" type="line"/>
      <point x="469" y="-265" type="line"/>
      <point x="469" y="-245" type="line"/>
      <point x="409" y="-245"/>
      <point x="404" y="-241"/>
      <point x="404" y="-167" type="curve" smooth="yes"/>
      <point x="404" y="492" type="line"/>
    </contour>
    <contour>
      <point x="222" y="15" type="curve" smooth="yes"/>
      <point x="120" y="15"/>
      <point x="72" y="85"/>
      <point x="72" y="242" type="curve" smooth="yes"/>
      <point x="72" y="398"/>
      <point x="122" y="477"/>
      <point x="233" y="477" type="curve" smooth="yes"/>
      <point x="331" y="477"/>
      <point x="376" y="382"/>
      <point x="376" y="243" type="curve" smooth="yes"/>
      <point x="376" y="58"/>
      <point x="299" y="15"/>
    </contour>
    <contour>
      <point x="394" y="0" type="line"/>
      <point x="524" y="0" type="line"/>
      <point x="524" y="28" type="line"/>
      <point x="394" y="28" type="line"/>
    </contour>
  </outline>
</glyph>
<glyph name="uni0565" format="2">
  <advance width="515"/>
  <unicode hex="0565"/>
  <note>
uni0565
</note>
  <outline>
    <contour>
      <point x="413" y="316" type="line"/>
      <point x="385" y="316" type="line"/>
      <point x="385" y="202" type="line" smooth="yes"/>
      <point x="385" y="104"/>
      <point x="336" y="15"/>
      <point x="237" y="15" type="curve" smooth="yes"/>
      <point x="143" y="15"/>
      <point x="116" y="86"/>
      <point x="116" y="181" type="curve" smooth="yes"/>
      <point x="116" y="760" type="line"/>
      <point x="25" y="760" type="line"/>
      <point x="25" y="740" type="line"/>
      <point x="84" y="740"/>
      <point x="88" y="736"/>
      <point x="88" y="666" type="curve" smooth="yes"/>
      <point x="88" y="184" type="line" smooth="yes"/>
      <point x="88" y="52"/>
      <point x="136" y="-10"/>
      <point x="236" y="-10" type="curve" smooth="yes"/>
      <point x="319" y="-10"/>
      <point x="353" y="33"/>
      <point x="382" y="91" type="curve"/>
      <point x="386" y="91" type="line"/>
      <point x="389" y="0" type="line"/>
      <point x="478" y="0" type="line"/>
      <point x="478" y="20" type="line"/>
      <point x="418" y="20"/>
      <point x="413" y="25"/>
      <point x="413" y="94" type="curve" smooth="yes"/>
    </contour>
    <contour>
      <point x="104" y="467" type="line"/>
      <point x="484" y="467" type="line"/>
      <point x="484" y="492" type="line"/>
      <point x="104" y="492" type="line"/>
    </contour>
  </outline>
</glyph>
<glyph name="uni0567" format="2">
  <advance width="390"/>
  <unicode hex="0567"/>
  <note>
uni0567
</note>
  <outline>
    <contour>
      <point x="354" y="467" type="line"/>
      <point x="354" y="492" type="line"/>
      <point x="116" y="492" type="line"/>
      <point x="116" y="760" type="line"/>
      <point x="25" y="760" type="line"/>
      <point x="25" y="740" type="line"/>
      <point x="84" y="740"/>
      <point x="88" y="736"/>
      <point x="88" y="666" type="curve" smooth="yes"/>
      <point x="88" y="13" type="line"/>
      <point x="104" y="0" type="line"/>
      <point x="116" y="0" type="line"/>
      <point x="148" y="21"/>
      <point x="208" y="28"/>
      <point x="241" y="28" type="curve" smooth="yes"/>
      <point x="296" y="28"/>
      <point x="325" y="10"/>
      <point x="325" y="-29" type="curve" smooth="yes"/>
      <point x="325" y="-81"/>
      <point x="258" y="-107"/>
      <point x="158" y="-107" type="curve"/>
      <point x="158" y="-121"/>
      <point x="170" y="-129"/>
      <point x="190" y="-129" type="curve" smooth="yes"/>
      <point x="286" y="-129"/>
      <point x="353" y="-92"/>
      <point x="353" y="-31" type="curve" smooth="yes"/>
      <point x="353" y="24"/>
      <point x="318" y="53"/>
      <point x="241" y="53" type="curve" smooth="yes"/>
      <point x="203" y="53"/>
      <point x="150" y="46"/>
      <point x="116" y="24" type="curve"/>
      <point x="116" y="467" type="line"/>
    </contour>
  </outline>
</glyph>
<glyph name="uni0569" format="2">
  <advance width="510"/>
  <unicode hex="0569"/>
  <note>
uni0569
</note>
  <outline>
    <contour>
      <point x="98" y="-265" type="line"/>
      <point x="196" y="-265" type="line"/>
      <point x="196" y="-245" type="line"/>
      <point x="131" y="-245"/>
      <point x="126" y="-240"/>
      <point x="126" y="-167" type="curve" smooth="yes"/>
      <point x="126" y="243" type="line" smooth="yes"/>
      <point x="126" y="382"/>
      <point x="176" y="477"/>
      <point x="274" y="477" type="curve" smooth="yes"/>
      <point x="375" y="477"/>
      <point x="420" y="389"/>
      <point x="420" y="243" type="curve" smooth="yes"/>
      <point x="420" y="66"/>
      <point x="394" y="15"/>
      <point x="343" y="15" type="curve" smooth="yes"/>
      <point x="299" y="15"/>
      <point x="273" y="43"/>
      <point x="273" y="120" type="curve" smooth="yes"/>
      <point x="273" y="178"/>
      <point x="297" y="224"/>
      <point x="365" y="224" type="curve" smooth="yes"/>
      <point x="405" y="224"/>
      <point x="456" y="213"/>
      <point x="486" y="194" type="curve"/>
      <point x="498" y="215" type="line"/>
      <point x="455" y="239"/>
      <point x="409" y="249"/>
      <point x="363" y="249" type="curve" smooth="yes"/>
      <point x="291" y="249"/>
      <point x="245" y="207"/>
      <point x="245" y="120" type="curve" smooth="yes"/>
      <point x="245" y="32"/>
      <point x="282" y="-10"/>
      <point x="343" y="-10" type="curve" smooth="yes"/>
      <point x="412" y="-10"/>
      <point x="448" y="47"/>
      <point x="448" y="244" type="curve" smooth="yes"/>
      <point x="448" y="409"/>
      <point x="390" y="502"/>
      <point x="277" y="502" type="curve" smooth="yes"/>
      <point x="200" y="502"/>
      <point x="151" y="461"/>
      <point x="128" y="393" type="curve"/>
      <point x="125" y="393" type="line"/>
      <point x="122" y="492" type="line"/>
      <point x="29" y="492" type="line"/>
      <point x="29" y="472" type="line"/>
      <point x="89" y="472"/>
      <point x="98" y="467"/>
      <point x="98" y="398" type="curve" smooth="yes"/>
    </contour>
  </outline>
</glyph>
<glyph name="uni056A" format="2">
  <advance width="518"/>
  <unicode hex="056A"/>
  <note>
uni056A
</note>
  <outline>
    <contour>
      <point x="380" y="492" type="line"/>
      <point x="246" y="492" type="line" smooth="yes"/>
      <point x="145" y="492"/>
      <point x="44" y="420"/>
      <point x="44" y="242" type="curve" smooth="yes"/>
      <point x="44" y="74"/>
      <point x="109" y="-10"/>
      <point x="230" y="-10" type="curve" smooth="yes"/>
      <point x="365" y="-10"/>
      <point x="408" y="91"/>
      <point x="408" y="238" type="curve" smooth="yes"/>
      <point x="408" y="760" type="line"/>
      <point x="310" y="760" type="line"/>
      <point x="310" y="740" type="line"/>
      <point x="376" y="740"/>
      <point x="380" y="735"/>
      <point x="380" y="666" type="curve" smooth="yes"/>
    </contour>
    <contour>
      <point x="246" y="467" type="curve" smooth="yes"/>
      <point x="380" y="467" type="line"/>
      <point x="380" y="239" type="line" smooth="yes"/>
      <point x="380" y="112"/>
      <point x="351" y="15"/>
      <point x="231" y="15" type="curve" smooth="yes"/>
      <point x="122" y="15"/>
      <point x="72" y="104"/>
      <point x="72" y="244" type="curve" smooth="yes"/>
      <point x="72" y="408"/>
      <point x="171" y="467"/>
    </contour>
    <contour>
      <point x="400" y="492" type="line"/>
      <point x="400" y="467" type="line"/>
      <point x="513" y="467" type="line"/>
      <point x="513" y="492" type="line"/>
    </contour>
  </outline>
</glyph>
<glyph name="uni056B" format="2">
  <advance width="515"/>
  <unicode hex="056B"/>
  <note>
uni056B
</note>
  <outline>
    <contour>
      <point x="490" y="20" type="line"/>
      <point x="429" y="20"/>
      <point x="425" y="24"/>
      <point x="425" y="94" type="curve" smooth="yes"/>
      <point x="425" y="317" type="line" smooth="yes"/>
      <point x="425" y="442"/>
      <point x="382" y="502"/>
      <point x="278" y="502" type="curve" smooth="yes"/>
      <point x="212" y="502"/>
      <point x="166" y="480"/>
      <point x="130" y="405" type="curve"/>
      <point x="125" y="405" type="line"/>
      <point x="127" y="435"/>
      <point x="128" y="464"/>
      <point x="128" y="495" type="curve" smooth="yes"/>
      <point x="128" y="760" type="line"/>
      <point x="30" y="760" type="line"/>
      <point x="30" y="740" type="line"/>
      <point x="96" y="740"/>
      <point x="100" y="735"/>
      <point x="100" y="666" type="curve" smooth="yes"/>
      <point x="100" y="-265" type="line"/>
      <point x="193" y="-265" type="line"/>
      <point x="193" y="-245" type="line"/>
      <point x="132" y="-245"/>
      <point x="128" y="-241"/>
      <point x="128" y="-171" type="curve" smooth="yes"/>
      <point x="128" y="290" type="line" smooth="yes"/>
      <point x="128" y="379"/>
      <point x="159" y="477"/>
      <point x="275" y="477" type="curve" smooth="yes"/>
      <point x="367" y="477"/>
      <point x="397" y="414"/>
      <point x="397" y="325" type="curve" smooth="yes"/>
      <point x="397" y="0" type="line"/>
      <point x="490" y="0" type="line"/>
    </contour>
  </outline>
</glyph>
<glyph name="uni056C" format="2">
  <advance width="222"/>
  <unicode hex="056C"/>
  <note>
uni056C
</note>
  <outline>
    <contour>
      <point x="239" y="-165" type="line"/>
      <point x="215" y="-165" type="line"/>
      <point x="215" y="-237"/>
      <point x="210" y="-240"/>
      <point x="160" y="-240" type="curve" smooth="yes"/>
      <point x="124" y="-240" type="line"/>
      <point x="124" y="492" type="line"/>
      <point x="31" y="492" type="line"/>
      <point x="31" y="472" type="line"/>
      <point x="56" y="472" type="line" smooth="yes"/>
      <point x="91" y="472"/>
      <point x="96" y="466"/>
      <point x="96" y="428" type="curve" smooth="yes"/>
      <point x="96" y="-265" type="line"/>
      <point x="239" y="-265" type="line"/>
    </contour>
  </outline>
</glyph>
<glyph name="uni056D" format="2">
  <advance width="817"/>
  <unicode hex="056D"/>
  <note>
uni056D
</note>
  <outline>
    <contour>
      <point x="722" y="94" type="curve" smooth="yes"/>
      <point x="722" y="492" type="line"/>
      <point x="629" y="492" type="line"/>
      <point x="629" y="472" type="line"/>
      <point x="692" y="472"/>
      <point x="694" y="468"/>
      <point x="694" y="398" type="curve" smooth="yes"/>
      <point x="694" y="202" type="line" smooth="yes"/>
      <point x="694" y="104"/>
      <point x="645" y="15"/>
      <point x="546" y="15" type="curve" smooth="yes"/>
      <point x="452" y="15"/>
      <point x="425" y="86"/>
      <point x="425" y="181" type="curve" smooth="yes"/>
      <point x="425" y="317" type="line" smooth="yes"/>
      <point x="425" y="442"/>
      <point x="382" y="502"/>
      <point x="278" y="502" type="curve" smooth="yes"/>
      <point x="212" y="502"/>
      <point x="166" y="480"/>
      <point x="130" y="405" type="curve"/>
      <point x="125" y="405" type="line"/>
      <point x="127" y="433"/>
      <point x="128" y="462"/>
      <point x="128" y="490" type="curve" smooth="yes"/>
      <point x="128" y="760" type="line"/>
      <point x="30" y="760" type="line"/>
      <point x="30" y="740" type="line"/>
      <point x="96" y="740"/>
      <point x="100" y="735"/>
      <point x="100" y="666" type="curve" smooth="yes"/>
      <point x="100" y="-265" type="line"/>
      <point x="193" y="-265" type="line"/>
      <point x="193" y="-245" type="line"/>
      <point x="132" y="-245"/>
      <point x="128" y="-241"/>
      <point x="128" y="-171" type="curve" smooth="yes"/>
      <point x="128" y="290" type="line" smooth="yes"/>
      <point x="128" y="379"/>
      <point x="159" y="477"/>
      <point x="275" y="477" type="curve" smooth="yes"/>
      <point x="367" y="477"/>
      <point x="397" y="414"/>
      <point x="397" y="325" type="curve" smooth="yes"/>
      <point x="397" y="184" type="line" smooth="yes"/>
      <point x="397" y="52"/>
      <point x="445" y="-10"/>
      <point x="545" y="-10" type="curve" smooth="yes"/>
      <point x="628" y="-10"/>
      <point x="662" y="33"/>
      <point x="691" y="91" type="curve"/>
      <point x="695" y="91" type="line"/>
      <point x="698" y="0" type="line"/>
      <point x="787" y="0" type="line"/>
      <point x="787" y="20" type="line"/>
      <point x="727" y="20"/>
      <point x="722" y="25"/>
    </contour>
  </outline>
</glyph>
<glyph name="uni056E" format="2">
  <advance width="496"/>
  <unicode hex="056E"/>
  <note>
uni056E
</note>
  <outline>
    <contour>
      <point x="241" y="-10" type="curve" smooth="yes"/>
      <point x="353" y="-10"/>
      <point x="431" y="82"/>
      <point x="431" y="218" type="curve" smooth="yes"/>
      <point x="431" y="325"/>
      <point x="403" y="389"/>
      <point x="344" y="467" type="curve"/>
      <point x="483" y="467" type="line"/>
      <point x="483" y="492" type="line"/>
      <point x="284" y="492" type="line" smooth="yes"/>
      <point x="138" y="492"/>
      <point x="44" y="401"/>
      <point x="44" y="218" type="curve" smooth="yes"/>
      <point x="44" y="62"/>
      <point x="120" y="-10"/>
    </contour>
    <contour>
      <point x="238" y="15" type="curve" smooth="yes"/>
      <point x="135" y="15"/>
      <point x="72" y="79"/>
      <point x="72" y="218" type="curve" smooth="yes"/>
      <point x="72" y="384"/>
      <point x="154" y="467"/>
      <point x="287" y="467" type="curve" smooth="yes"/>
      <point x="310" y="467" type="line"/>
      <point x="373" y="392"/>
      <point x="404" y="315"/>
      <point x="404" y="218" type="curve" smooth="yes"/>
      <point x="404" y="86"/>
      <point x="331" y="15"/>
    </contour>
    <contour>
      <point x="302" y="479" type="curve"/>
      <point x="336" y="479" type="line"/>
      <point x="313" y="503"/>
      <point x="289" y="530"/>
      <point x="245" y="585" type="curve" smooth="yes"/>
      <point x="198" y="644"/>
      <point x="189" y="673"/>
      <point x="189" y="700" type="curve" smooth="yes"/>
      <point x="189" y="726"/>
      <point x="196" y="746"/>
      <point x="247" y="746" type="curve"/>
      <point x="247" y="765"/>
      <point x="239" y="771"/>
      <point x="224" y="771" type="curve" smooth="yes"/>
      <point x="186" y="771"/>
      <point x="161" y="743"/>
      <point x="161" y="698" type="curve" smooth="yes"/>
      <point x="161" y="673"/>
      <point x="170" y="638"/>
      <point x="224" y="571" type="curve" smooth="yes"/>
      <point x="243" y="547"/>
      <point x="269" y="516"/>
    </contour>
  </outline>
</glyph>
<glyph name="uni056F" format="2">
  <advance width="509"/>
  <unicode hex="056F"/>
  <note>
uni056F
</note>
  <outline>
    <contour>
      <point x="385" y="-265" type="line"/>
      <point x="478" y="-265" type="line"/>
      <point x="478" y="-245" type="line"/>
      <point x="418" y="-245"/>
      <point x="413" y="-240"/>
      <point x="413" y="-171" type="curve" smooth="yes"/>
      <point x="413" y="492" type="line"/>
      <point x="320" y="492" type="line"/>
      <point x="320" y="472" type="line"/>
      <point x="383" y="472"/>
      <point x="385" y="468"/>
      <point x="385" y="398" type="curve" smooth="yes"/>
      <point x="385" y="202" type="line" smooth="yes"/>
      <point x="385" y="104"/>
      <point x="336" y="15"/>
      <point x="237" y="15" type="curve" smooth="yes"/>
      <point x="143" y="15"/>
      <point x="116" y="86"/>
      <point x="116" y="181" type="curve" smooth="yes"/>
      <point x="116" y="760" type="line"/>
      <point x="25" y="760" type="line"/>
      <point x="25" y="740" type="line"/>
      <point x="84" y="740"/>
      <point x="88" y="736"/>
      <point x="88" y="666" type="curve" smooth="yes"/>
      <point x="88" y="184" type="line" smooth="yes"/>
      <point x="88" y="52"/>
      <point x="136" y="-10"/>
      <point x="236" y="-10" type="curve" smooth="yes"/>
      <point x="319" y="-10"/>
      <point x="354" y="33"/>
      <point x="383" y="91" type="curve"/>
      <point x="388" y="91" type="line"/>
      <point x="386" y="64"/>
      <point x="385" y="38"/>
      <point x="385" y="10" type="curve" smooth="yes"/>
    </contour>
  </outline>
</glyph>
<glyph name="uni0570" format="2">
  <advance width="478"/>
  <unicode hex="0570"/>
  <note>
uni0570
</note>
  <outline>
    <contour>
      <point x="80" y="172" type="line"/>
      <point x="80" y="239"/>
      <point x="124" y="337"/>
      <point x="229" y="337" type="curve" smooth="yes"/>
      <point x="332" y="337"/>
      <point x="362" y="274"/>
      <point x="362" y="185" type="curve" smooth="yes"/>
      <point x="362" y="0" type="line"/>
      <point x="455" y="0" type="line"/>
      <point x="455" y="20" type="line"/>
      <point x="394" y="20"/>
      <point x="390" y="24"/>
      <point x="390" y="94" type="curve" smooth="yes"/>
      <point x="390" y="177" type="line" smooth="yes"/>
      <point x="390" y="302"/>
      <point x="347" y="362"/>
      <point x="229" y="362" type="curve" smooth="yes"/>
      <point x="175" y="362"/>
      <point x="122" y="340"/>
      <point x="86" y="265" type="curve"/>
      <point x="83" y="265" type="line"/>
      <point x="94" y="627"/>
      <point x="201" y="744"/>
      <point x="328" y="744" type="curve" smooth="yes"/>
      <point x="395" y="744"/>
      <point x="427" y="717"/>
      <point x="428" y="645" type="curve"/>
      <point x="442" y="645"/>
      <point x="455" y="651"/>
      <point x="455" y="671" type="curve" smooth="yes"/>
      <point x="455" y="727"/>
      <point x="415" y="769"/>
      <point x="328" y="769" type="curve" smooth="yes"/>
      <point x="177" y="769"/>
      <point x="55" y="633"/>
      <point x="55" y="178" type="curve"/>
    </contour>
  </outline>
</glyph>
<glyph name="uni0571" format="2">
  <advance width="506"/>
  <unicode hex="0571"/>
  <note>
uni0571
</note>
  <outline>
    <contour>
      <point x="211" y="-10" type="curve" smooth="yes"/>
      <point x="308" y="-10"/>
      <point x="370" y="45"/>
      <point x="401" y="110" type="curve"/>
      <point x="387" y="126" type="line"/>
      <point x="359" y="66"/>
      <point x="301" y="15"/>
      <point x="210" y="15" type="curve" smooth="yes"/>
      <point x="128" y="15"/>
      <point x="62" y="55"/>
      <point x="62" y="164" type="curve" smooth="yes"/>
      <point x="62" y="262"/>
      <point x="96" y="327"/>
      <point x="246" y="440" type="curve" smooth="yes"/>
      <point x="413" y="566"/>
      <point x="419" y="580"/>
      <point x="419" y="602" type="curve" smooth="yes"/>
      <point x="419" y="639"/>
      <point x="402" y="657"/>
      <point x="230" y="685" type="curve" smooth="yes"/>
      <point x="91" y="708"/>
      <point x="73" y="716"/>
      <point x="73" y="770" type="curve"/>
      <point x="55" y="770"/>
      <point x="48" y="760"/>
      <point x="48" y="745" type="curve" smooth="yes"/>
      <point x="48" y="710"/>
      <point x="65" y="686"/>
      <point x="230" y="659" type="curve" smooth="yes"/>
      <point x="380" y="634"/>
      <point x="391" y="618"/>
      <point x="391" y="602" type="curve" smooth="yes"/>
      <point x="391" y="590"/>
      <point x="384" y="576"/>
      <point x="235" y="464" type="curve" smooth="yes"/>
      <point x="65" y="336"/>
      <point x="34" y="275"/>
      <point x="34" y="160" type="curve" smooth="yes"/>
      <point x="34" y="37"/>
      <point x="113" y="-10"/>
    </contour>
    <contour>
      <point x="268" y="474" type="line"/>
      <point x="245" y="459" type="line"/>
      <point x="386" y="84" type="line"/>
      <point x="390" y="84" type="line"/>
      <point x="423" y="0" type="line"/>
      <point x="495" y="0" type="line"/>
      <point x="495" y="20" type="line"/>
      <point x="443" y="20"/>
      <point x="441" y="22"/>
      <point x="417" y="84" type="curve" smooth="yes"/>
    </contour>
  </outline>
</glyph>
<glyph name="uni0573" format="2">
  <advance width="530"/>
  <unicode hex="0573"/>
  <note>
uni0573
</note>
  <outline>
    <contour>
      <point x="238" y="-10" type="curve"/>
      <point x="321" y="-10"/>
      <point x="374" y="33"/>
      <point x="403" y="91" type="curve"/>
      <point x="407" y="91" type="line"/>
      <point x="410" y="0" type="line"/>
      <point x="500" y="0" type="line"/>
      <point x="500" y="20" type="line"/>
      <point x="440" y="20"/>
      <point x="434" y="25"/>
      <point x="434" y="94" type="curve" smooth="yes"/>
      <point x="434" y="220" type="line" smooth="yes"/>
      <point x="434" y="404"/>
      <point x="321" y="498"/>
      <point x="30" y="498" type="curve"/>
      <point x="30" y="473" type="line"/>
      <point x="297" y="473"/>
      <point x="406" y="392"/>
      <point x="406" y="218" type="curve" smooth="yes"/>
      <point x="406" y="101"/>
      <point x="349" y="15"/>
      <point x="238" y="15" type="curve" smooth="yes"/>
      <point x="109" y="15"/>
      <point x="80" y="122"/>
      <point x="80" y="265" type="curve" smooth="yes"/>
      <point x="80" y="490"/>
      <point x="222" y="745"/>
      <point x="393" y="745" type="curve" smooth="yes"/>
      <point x="470" y="745"/>
      <point x="502" y="718"/>
      <point x="503" y="646" type="curve"/>
      <point x="517" y="646"/>
      <point x="530" y="652"/>
      <point x="530" y="672" type="curve" smooth="yes"/>
      <point x="530" y="728"/>
      <point x="490" y="770"/>
      <point x="393" y="770" type="curve" smooth="yes"/>
      <point x="191" y="770"/>
      <point x="52" y="489"/>
      <point x="52" y="258" type="curve" smooth="yes"/>
      <point x="52" y="71"/>
      <point x="117" y="-10"/>
    </contour>
  </outline>
</glyph>
<glyph name="uni0574" format="2">
  <advance width="556"/>
  <unicode hex="0574"/>
  <note>
uni0574
</note>
  <outline>
    <contour>
      <point x="413" y="94" type="curve" smooth="yes"/>
      <point x="413" y="453" type="line" smooth="yes"/>
      <point x="413" y="513"/>
      <point x="396" y="545"/>
      <point x="382" y="578" type="curve" smooth="yes"/>
      <point x="373" y="600"/>
      <point x="366" y="624"/>
      <point x="366" y="656" type="curve" smooth="yes"/>
      <point x="366" y="710"/>
      <point x="393" y="745"/>
      <point x="446" y="745" type="curve" smooth="yes"/>
      <point x="499" y="745"/>
      <point x="518" y="714"/>
      <point x="518" y="644" type="curve"/>
      <point x="539" y="647"/>
      <point x="548" y="659"/>
      <point x="548" y="682" type="curve" smooth="yes"/>
      <point x="548" y="726"/>
      <point x="517" y="770"/>
      <point x="447" y="770" type="curve" smooth="yes"/>
      <point x="376" y="770"/>
      <point x="338" y="723"/>
      <point x="338" y="656" type="curve" smooth="yes"/>
      <point x="338" y="616"/>
      <point x="347" y="589"/>
      <point x="357" y="565" type="curve" smooth="yes"/>
      <point x="370" y="534"/>
      <point x="385" y="505"/>
      <point x="385" y="453" type="curve" smooth="yes"/>
      <point x="385" y="202" type="line" smooth="yes"/>
      <point x="385" y="104"/>
      <point x="336" y="15"/>
      <point x="237" y="15" type="curve" smooth="yes"/>
      <point x="143" y="15"/>
      <point x="116" y="86"/>
      <point x="116" y="181" type="curve" smooth="yes"/>
      <point x="116" y="492" type="line"/>
      <point x="25" y="492" type="line"/>
      <point x="25" y="472" type="line"/>
      <point x="84" y="472"/>
      <point x="88" y="468"/>
      <point x="88" y="398" type="curve" smooth="yes"/>
      <point x="88" y="184" type="line" smooth="yes"/>
      <point x="88" y="52"/>
      <point x="136" y="-10"/>
      <point x="236" y="-10" type="curve" smooth="yes"/>
      <point x="319" y="-10"/>
      <point x="353" y="33"/>
      <point x="382" y="91" type="curve"/>
      <point x="386" y="91" type="line"/>
      <point x="389" y="0" type="line"/>
      <point x="478" y="0" type="line"/>
      <point x="478" y="20" type="line"/>
      <point x="418" y="20"/>
      <point x="413" y="25"/>
    </contour>
  </outline>
</glyph>
<glyph name="uni0575" format="2">
  <advance width="204"/>
  <unicode hex="0575"/>
  <note>
uni0575
</note>
  <outline>
    <contour>
      <point x="89" y="83" type="line" smooth="yes"/>
      <point x="89" y="-33"/>
      <point x="131" y="-67"/>
      <point x="131" y="-164" type="curve" smooth="yes"/>
      <point x="131" y="-224"/>
      <point x="103" y="-239"/>
      <point x="47" y="-240" type="curve" smooth="yes"/>
      <point x="39" y="-240" type="line"/>
      <point x="39" y="-265" type="line"/>
      <point x="49" y="-265" type="line" smooth="yes"/>
      <point x="124" y="-265"/>
      <point x="159" y="-232"/>
      <point x="159" y="-163" type="curve" smooth="yes"/>
      <point x="159" y="-57"/>
      <point x="117" y="-25"/>
      <point x="117" y="82" type="curve" smooth="yes"/>
      <point x="117" y="492" type="line"/>
      <point x="24" y="492" type="line"/>
      <point x="24" y="472" type="line"/>
      <point x="49" y="472" type="line" smooth="yes"/>
      <point x="84" y="472"/>
      <point x="89" y="466"/>
      <point x="89" y="428" type="curve" smooth="yes"/>
    </contour>
  </outline>
</glyph>
<glyph name="uni0576" format="2">
  <advance width="505"/>
  <unicode hex="0576"/>
  <note>
uni0576
</note>
  <outline>
    <contour>
      <point x="213" y="-10" type="curve" smooth="yes"/>
      <point x="290" y="-10"/>
      <point x="329" y="9"/>
      <point x="373" y="84" type="curve"/>
      <point x="377" y="84" type="line"/>
      <point x="380" y="0" type="line"/>
      <point x="474" y="0" type="line"/>
      <point x="474" y="20" type="line"/>
      <point x="408" y="20"/>
      <point x="404" y="25"/>
      <point x="404" y="94" type="curve" smooth="yes"/>
      <point x="404" y="492" type="line"/>
      <point x="311" y="492" type="line"/>
      <point x="311" y="472" type="line"/>
      <point x="374" y="472"/>
      <point x="376" y="468"/>
      <point x="376" y="398" type="curve" smooth="yes"/>
      <point x="376" y="202" type="line" smooth="yes"/>
      <point x="376" y="113"/>
      <point x="332" y="15"/>
      <point x="212" y="15" type="curve" smooth="yes"/>
      <point x="117" y="15"/>
      <point x="70" y="93"/>
      <point x="70" y="194" type="curve" smooth="yes"/>
      <point x="70" y="323"/>
      <point x="111" y="434"/>
      <point x="187" y="572" type="curve"/>
      <point x="164" y="582" type="line"/>
      <point x="89" y="451"/>
      <point x="42" y="333"/>
      <point x="42" y="196" type="curve" smooth="yes"/>
      <point x="42" y="60"/>
      <point x="110" y="-10"/>
    </contour>
    <contour>
      <point x="187" y="587" type="line"/>
      <point x="135" y="597"/>
      <point x="102" y="619"/>
      <point x="102" y="677" type="curve" smooth="yes"/>
      <point x="102" y="722"/>
      <point x="127" y="750"/>
      <point x="213" y="750" type="curve"/>
      <point x="210" y="767"/>
      <point x="201" y="775"/>
      <point x="178" y="775" type="curve" smooth="yes"/>
      <point x="119" y="775"/>
      <point x="74" y="737"/>
      <point x="74" y="678" type="curve" smooth="yes"/>
      <point x="74" y="612"/>
      <point x="108" y="581"/>
      <point x="164" y="564" type="curve"/>
      <point x="187" y="572" type="line"/>
    </contour>
  </outline>
</glyph>
<glyph name="uni0577" format="2">
  <advance width="403"/>
  <unicode hex="0577"/>
  <note>
uni0577
</note>
  <outline>
    <contour>
      <point x="185" y="500" type="curve" smooth="yes"/>
      <point x="73" y="500"/>
      <point x="24" y="411"/>
      <point x="24" y="350" type="curve" smooth="yes"/>
      <point x="24" y="322"/>
      <point x="35" y="308"/>
      <point x="49" y="308" type="curve"/>
      <point x="49" y="404"/>
      <point x="90" y="475"/>
      <point x="185" y="475" type="curve" smooth="yes"/>
      <point x="271" y="475"/>
      <point x="323" y="421"/>
      <point x="323" y="333" type="curve" smooth="yes"/>
      <point x="323" y="251"/>
      <point x="301" y="177"/>
      <point x="205" y="50" type="curve" smooth="yes"/>
      <point x="54" y="-149"/>
      <point x="44" y="-180"/>
      <point x="44" y="-219" type="curve" smooth="yes"/>
      <point x="44" y="-247"/>
      <point x="63" y="-265"/>
      <point x="102" y="-265" type="curve" smooth="yes"/>
      <point x="331" y="-265" type="line"/>
      <point x="331" y="-240" type="line"/>
      <point x="102" y="-240" type="line" smooth="yes"/>
      <point x="77" y="-240"/>
      <point x="72" y="-232"/>
      <point x="72" y="-219" type="curve" smooth="yes"/>
      <point x="72" y="-184"/>
      <point x="78" y="-163"/>
      <point x="226" y="34" type="curve" smooth="yes"/>
      <point x="334" y="177"/>
      <point x="351" y="246"/>
      <point x="351" y="333" type="curve" smooth="yes"/>
      <point x="351" y="443"/>
      <point x="285" y="500"/>
    </contour>
  </outline>
</glyph>
<glyph name="uni0578" format="2">
  <advance width="515"/>
  <unicode hex="0578"/>
  <note>
uni0578
</note>
  <anchor x="263" y="492" name="top"/>
  <outline>
    <contour>
      <point x="490" y="20" type="line"/>
      <point x="429" y="20"/>
      <point x="425" y="24"/>
      <point x="425" y="94" type="curve" smooth="yes"/>
      <point x="425" y="317" type="line" smooth="yes"/>
      <point x="425" y="442"/>
      <point x="382" y="502"/>
      <point x="278" y="502" type="curve" smooth="yes"/>
      <point x="212" y="502"/>
      <point x="167" y="480"/>
      <point x="131" y="405" type="curve"/>
      <point x="127" y="405" type="line"/>
      <point x="124" y="492" type="line"/>
      <point x="30" y="492" type="line"/>
      <point x="30" y="472" type="line"/>
      <point x="96" y="472"/>
      <point x="100" y="467"/>
      <point x="100" y="398" type="curve" smooth="yes"/>
      <point x="100" y="0" type="line"/>
      <point x="193" y="0" type="line"/>
      <point x="193" y="20" type="line"/>
      <point x="132" y="20"/>
      <point x="128" y="24"/>
      <point x="128" y="94" type="curve" smooth="yes"/>
      <point x="128" y="290" type="line" smooth="yes"/>
      <point x="128" y="379"/>
      <point x="159" y="477"/>
      <point x="275" y="477" type="curve" smooth="yes"/>
      <point x="367" y="477"/>
      <point x="397" y="414"/>
      <point x="397" y="325" type="curve" smooth="yes"/>
      <point x="397" y="0" type="line"/>
      <point x="490" y="0" type="line"/>
    </contour>
  </outline>
</glyph>
<glyph name="uni0579" format="2">
  <advance width="293"/>
  <unicode hex="0579"/>
  <note>
uni0579
</note>
  <outline>
    <contour>
      <point x="269" y="289" type="line"/>
      <point x="244" y="296" type="line"/>
      <point x="130" y="70" type="line" smooth="yes"/>
      <point x="11" y="-166"/>
      <point x="0" y="-190"/>
      <point x="0" y="-219" type="curve" smooth="yes"/>
      <point x="0" y="-247"/>
      <point x="19" y="-265"/>
      <point x="58" y="-265" type="curve" smooth="yes"/>
      <point x="267" y="-265" type="line"/>
      <point x="267" y="-240" type="line"/>
      <point x="58" y="-240" type="line" smooth="yes"/>
      <point x="33" y="-240"/>
      <point x="28" y="-232"/>
      <point x="28" y="-219" type="curve" smooth="yes"/>
      <point x="28" y="-194"/>
      <point x="32" y="-182"/>
      <point x="151" y="54" type="curve" smooth="yes"/>
    </contour>
    <contour>
      <point x="123" y="492" type="curve"/>
      <point x="97" y="492" type="line"/>
      <point x="74" y="467"/>
      <point x="61" y="431"/>
      <point x="61" y="410" type="curve" smooth="yes"/>
      <point x="61" y="377"/>
      <point x="78" y="355"/>
      <point x="110" y="339" type="curve" smooth="yes"/>
      <point x="254" y="267" type="line"/>
      <point x="269" y="289" type="line"/>
      <point x="123" y="362" type="line" smooth="yes"/>
      <point x="97" y="375"/>
      <point x="89" y="387"/>
      <point x="89" y="412" type="curve" smooth="yes"/>
      <point x="89" y="434"/>
      <point x="97" y="458"/>
    </contour>
  </outline>
</glyph>
<glyph name="uni057A" format="2">
  <advance width="764"/>
  <unicode hex="057A"/>
  <note>
uni057A
</note>
  <outline>
    <contour>
      <point x="575" y="492" type="line"/>
      <point x="575" y="472" type="line"/>
      <point x="637" y="472"/>
      <point x="640" y="468"/>
      <point x="640" y="398" type="curve" smooth="yes"/>
      <point x="640" y="202" type="line" smooth="yes"/>
      <point x="640" y="105"/>
      <point x="591" y="19"/>
      <point x="506" y="19" type="curve" smooth="yes"/>
      <point x="422" y="19"/>
      <point x="393" y="74"/>
      <point x="393" y="171" type="curve" smooth="yes"/>
      <point x="393" y="492" type="line"/>
      <point x="300" y="492" type="line"/>
      <point x="300" y="472" type="line"/>
      <point x="361" y="472"/>
      <point x="365" y="468"/>
      <point x="365" y="398" type="curve" smooth="yes"/>
      <point x="365" y="187" type="line" smooth="yes"/>
      <point x="365" y="93"/>
      <point x="330" y="18"/>
      <point x="229" y="18" type="curve" smooth="yes"/>
      <point x="149" y="18"/>
      <point x="118" y="73"/>
      <point x="118" y="171" type="curve" smooth="yes"/>
      <point x="118" y="492" type="line"/>
      <point x="25" y="492" type="line"/>
      <point x="25" y="472" type="line"/>
      <point x="86" y="472"/>
      <point x="90" y="468"/>
      <point x="90" y="398" type="curve" smooth="yes"/>
      <point x="90" y="175" type="line" smooth="yes"/>
      <point x="90" y="58"/>
      <point x="132" y="-6"/>
      <point x="229" y="-6" type="curve" smooth="yes"/>
      <point x="313" y="-6"/>
      <point x="351" y="41"/>
      <point x="372" y="95" type="curve"/>
      <point x="375" y="95" type="line"/>
      <point x="390" y="41"/>
      <point x="419" y="-6"/>
      <point x="500" y="-6" type="curve" smooth="yes"/>
      <point x="555" y="-6"/>
      <point x="612" y="26"/>
      <point x="637" y="93" type="curve"/>
      <point x="643" y="93" type="line"/>
      <point x="641" y="65"/>
      <point x="640" y="38"/>
      <point x="640" y="10" type="curve" smooth="yes"/>
      <point x="640" y="-265" type="line"/>
      <point x="733" y="-265" type="line"/>
      <point x="733" y="-245" type="line"/>
      <point x="672" y="-245"/>
      <point x="668" y="-240"/>
      <point x="668" y="-171" type="curve" smooth="yes"/>
      <point x="668" y="492" type="line"/>
    </contour>
  </outline>
</glyph>
<glyph name="uni057B" format="2">
  <advance width="495"/>
  <unicode hex="057B"/>
  <note>
uni057B
</note>
  <outline>
    <contour>
      <point x="95" y="-265" type="curve" smooth="yes"/>
      <point x="404" y="-265" type="line"/>
      <point x="404" y="-240" type="line"/>
      <point x="99" y="-240" type="line" smooth="yes"/>
      <point x="74" y="-240"/>
      <point x="73" y="-232"/>
      <point x="73" y="-223" type="curve" smooth="yes"/>
      <point x="73" y="-208"/>
      <point x="89" y="-191"/>
      <point x="292" y="34" type="curve" smooth="yes"/>
      <point x="420" y="176"/>
      <point x="443" y="242"/>
      <point x="443" y="333" type="curve" smooth="yes"/>
      <point x="443" y="437"/>
      <point x="364" y="500"/>
      <point x="254" y="500" type="curve" smooth="yes"/>
      <point x="115" y="500"/>
      <point x="57" y="411"/>
      <point x="57" y="316" type="curve" smooth="yes"/>
      <point x="57" y="249"/>
      <point x="73" y="214"/>
      <point x="138" y="154" type="curve" smooth="yes"/>
      <point x="190" y="106"/>
      <point x="215" y="66"/>
      <point x="215" y="28" type="curve" smooth="yes"/>
      <point x="215" y="2"/>
      <point x="203" y="-24"/>
      <point x="179" y="-50" type="curve"/>
      <point x="204" y="-49" type="line"/>
      <point x="231" y="-18"/>
      <point x="242" y="9"/>
      <point x="242" y="36" type="curve" smooth="yes"/>
      <point x="242" y="80"/>
      <point x="210" y="123"/>
      <point x="156" y="173" type="curve" smooth="yes"/>
      <point x="104" y="222"/>
      <point x="85" y="240"/>
      <point x="85" y="315" type="curve" smooth="yes"/>
      <point x="85" y="394"/>
      <point x="131" y="475"/>
      <point x="253" y="475" type="curve" smooth="yes"/>
      <point x="347" y="475"/>
      <point x="415" y="417"/>
      <point x="415" y="333" type="curve" smooth="yes"/>
      <point x="415" y="242"/>
      <point x="387" y="177"/>
      <point x="270" y="49" type="curve" smooth="yes"/>
      <point x="62" y="-179"/>
      <point x="47" y="-200"/>
      <point x="47" y="-227" type="curve" smooth="yes"/>
      <point x="47" y="-247"/>
      <point x="56" y="-265"/>
    </contour>
  </outline>
</glyph>
<glyph name="uni057C" format="2">
  <advance width="531"/>
  <unicode hex="057C"/>
  <note>
uni057C
</note>
  <outline>
    <contour>
      <point x="303" y="0" type="line"/>
      <point x="525" y="0" type="line"/>
      <point x="525" y="28" type="line"/>
      <point x="303" y="28" type="line"/>
    </contour>
    <contour>
      <point x="268" y="502" type="curve" smooth="yes"/>
      <point x="206" y="502"/>
      <point x="166" y="481"/>
      <point x="131" y="408" type="curve"/>
      <point x="127" y="408" type="line"/>
      <point x="124" y="492" type="line"/>
      <point x="30" y="492" type="line"/>
      <point x="30" y="472" type="line"/>
      <point x="96" y="472"/>
      <point x="100" y="467"/>
      <point x="100" y="398" type="curve" smooth="yes"/>
      <point x="100" y="0" type="line"/>
      <point x="128" y="0" type="line"/>
      <point x="128" y="290" type="line" smooth="yes"/>
      <point x="128" y="388"/>
      <point x="167" y="477"/>
      <point x="259" y="477" type="curve" smooth="yes"/>
      <point x="346" y="477"/>
      <point x="386" y="411"/>
      <point x="386" y="322" type="curve" smooth="yes"/>
      <point x="386" y="207"/>
      <point x="349" y="105"/>
      <point x="278" y="0" type="curve"/>
      <point x="303" y="0" type="line"/>
      <point x="379" y="103"/>
      <point x="414" y="199"/>
      <point x="414" y="322" type="curve" smooth="yes"/>
      <point x="414" y="435"/>
      <point x="356" y="502"/>
    </contour>
  </outline>
</glyph>
<glyph name="uni057D" format="2">
  <advance width="509"/>
  <unicode hex="057D"/>
  <note>
uni057D
</note>
  <outline>
    <contour>
      <point x="236" y="-10" type="curve" smooth="yes"/>
      <point x="319" y="-10"/>
      <point x="353" y="33"/>
      <point x="382" y="91" type="curve"/>
      <point x="386" y="91" type="line"/>
      <point x="389" y="0" type="line"/>
      <point x="478" y="0" type="line"/>
      <point x="478" y="20" type="line"/>
      <point x="418" y="20"/>
      <point x="413" y="25"/>
      <point x="413" y="94" type="curve" smooth="yes"/>
      <point x="413" y="492" type="line"/>
      <point x="320" y="492" type="line"/>
      <point x="320" y="472" type="line"/>
      <point x="383" y="472"/>
      <point x="385" y="468"/>
      <point x="385" y="398" type="curve" smooth="yes"/>
      <point x="385" y="202" type="line" smooth="yes"/>
      <point x="385" y="104"/>
      <point x="336" y="15"/>
      <point x="237" y="15" type="curve" smooth="yes"/>
      <point x="143" y="15"/>
      <point x="116" y="86"/>
      <point x="116" y="181" type="curve" smooth="yes"/>
      <point x="116" y="492" type="line"/>
      <point x="25" y="492" type="line"/>
      <point x="25" y="472" type="line"/>
      <point x="84" y="472"/>
      <point x="88" y="468"/>
      <point x="88" y="398" type="curve" smooth="yes"/>
      <point x="88" y="184" type="line" smooth="yes"/>
      <point x="88" y="52"/>
      <point x="136" y="-10"/>
    </contour>
  </outline>
</glyph>
<glyph name="uni057E" format="2">
  <advance width="509"/>
  <unicode hex="057E"/>
  <note>
uni057E
</note>
  <outline>
    <contour>
      <point x="236" y="-10" type="curve" smooth="yes"/>
      <point x="319" y="-10"/>
      <point x="354" y="33"/>
      <point x="383" y="91" type="curve"/>
      <point x="387" y="91" type="line"/>
      <point x="386" y="67"/>
      <point x="385" y="42"/>
      <point x="385" y="18" type="curve" smooth="yes"/>
      <point x="385" y="-265" type="line"/>
      <point x="413" y="-265" type="line"/>
      <point x="413" y="760" type="line"/>
      <point x="320" y="760" type="line"/>
      <point x="320" y="740" type="line"/>
      <point x="383" y="740"/>
      <point x="385" y="736"/>
      <point x="385" y="666" type="curve" smooth="yes"/>
      <point x="385" y="202" type="line" smooth="yes"/>
      <point x="385" y="104"/>
      <point x="336" y="15"/>
      <point x="237" y="15" type="curve" smooth="yes"/>
      <point x="143" y="15"/>
      <point x="116" y="86"/>
      <point x="116" y="181" type="curve" smooth="yes"/>
      <point x="116" y="492" type="line"/>
      <point x="25" y="492" type="line"/>
      <point x="25" y="472" type="line"/>
      <point x="84" y="472"/>
      <point x="88" y="468"/>
      <point x="88" y="398" type="curve" smooth="yes"/>
      <point x="88" y="184" type="line" smooth="yes"/>
      <point x="88" y="52"/>
      <point x="136" y="-10"/>
    </contour>
    <contour>
      <point x="403" y="-265" type="line"/>
      <point x="533" y="-265" type="line"/>
      <point x="533" y="-237" type="line"/>
      <point x="403" y="-237" type="line"/>
    </contour>
  </outline>
</glyph>
<glyph name="uni0581" format="2">
  <advance width="474"/>
  <unicode hex="0581"/>
  <note>
uni0581
</note>
  <outline>
    <contour>
      <point x="220" y="-265" type="curve" smooth="yes"/>
      <point x="337" y="-265"/>
      <point x="404" y="-201"/>
      <point x="404" y="-36" type="curve" smooth="yes"/>
      <point x="404" y="492" type="line"/>
      <point x="380" y="492" type="line"/>
      <point x="377" y="393" type="line"/>
      <point x="374" y="393" type="line"/>
      <point x="351" y="461"/>
      <point x="307" y="502"/>
      <point x="230" y="502" type="curve" smooth="yes"/>
      <point x="107" y="502"/>
      <point x="44" y="419"/>
      <point x="44" y="244" type="curve" smooth="yes"/>
      <point x="44" y="67"/>
      <point x="108" y="-10"/>
      <point x="219" y="-10" type="curve" smooth="yes"/>
      <point x="307" y="-10"/>
      <point x="352" y="35"/>
      <point x="376" y="101" type="curve"/>
      <point x="378" y="101" type="line"/>
      <point x="376" y="83"/>
      <point x="376" y="36"/>
      <point x="376" y="13" type="curve" smooth="yes"/>
      <point x="376" y="-36" type="line" smooth="yes"/>
      <point x="376" y="-184"/>
      <point x="319" y="-240"/>
      <point x="223" y="-240" type="curve" smooth="yes"/>
      <point x="122" y="-240"/>
      <point x="94" y="-197"/>
      <point x="94" y="-106" type="curve"/>
      <point x="75" y="-106"/>
      <point x="64" y="-116"/>
      <point x="64" y="-132" type="curve" smooth="yes"/>
      <point x="64" y="-201"/>
      <point x="105" y="-265"/>
    </contour>
    <contour>
      <point x="222" y="15" type="curve" smooth="yes"/>
      <point x="120" y="15"/>
      <point x="72" y="86"/>
      <point x="72" y="243" type="curve" smooth="yes"/>
      <point x="72" y="399"/>
      <point x="122" y="477"/>
      <point x="233" y="477" type="curve" smooth="yes"/>
      <point x="331" y="477"/>
      <point x="376" y="384"/>
      <point x="376" y="245" type="curve" smooth="yes"/>
      <point x="376" y="60"/>
      <point x="299" y="15"/>
    </contour>
  </outline>
</glyph>
<glyph name="uni0582" format="2">
  <advance width="239"/>
  <unicode hex="0582"/>
  <note>
uni0582
</note>
  <outline>
    <contour>
      <point x="228" y="100" type="line"/>
      <point x="204" y="100" type="line"/>
      <point x="204" y="28"/>
      <point x="199" y="25"/>
      <point x="149" y="25" type="curve" smooth="yes"/>
      <point x="124" y="25" type="line"/>
      <point x="124" y="492" type="line"/>
      <point x="31" y="492" type="line"/>
      <point x="31" y="472" type="line"/>
      <point x="56" y="472" type="line" smooth="yes"/>
      <point x="91" y="472"/>
      <point x="96" y="466"/>
      <point x="96" y="428" type="curve" smooth="yes"/>
      <point x="96" y="0" type="line"/>
      <point x="228" y="0" type="line"/>
    </contour>
  </outline>
</glyph>
<glyph name="uni0583" format="2">
  <advance width="800"/>
  <unicode hex="0583"/>
  <note>
uni0583
</note>
  <outline>
    <contour>
      <point x="710" y="94" type="curve" smooth="yes"/>
      <point x="710" y="317" type="line" smooth="yes"/>
      <point x="710" y="442"/>
      <point x="667" y="502"/>
      <point x="563" y="502" type="curve" smooth="yes"/>
      <point x="497" y="502"/>
      <point x="451" y="480"/>
      <point x="415" y="405" type="curve"/>
      <point x="410" y="405" type="line"/>
      <point x="412" y="431"/>
      <point x="413" y="456"/>
      <point x="413" y="483" type="curve" smooth="yes"/>
      <point x="413" y="760" type="line"/>
      <point x="320" y="760" type="line"/>
      <point x="320" y="740" type="line"/>
      <point x="383" y="740"/>
      <point x="385" y="736"/>
      <point x="385" y="666" type="curve" smooth="yes"/>
      <point x="385" y="202" type="line" smooth="yes"/>
      <point x="385" y="104"/>
      <point x="336" y="15"/>
      <point x="237" y="15" type="curve" smooth="yes"/>
      <point x="143" y="15"/>
      <point x="116" y="86"/>
      <point x="116" y="181" type="curve" smooth="yes"/>
      <point x="116" y="492" type="line"/>
      <point x="25" y="492" type="line"/>
      <point x="25" y="472" type="line"/>
      <point x="84" y="472"/>
      <point x="88" y="468"/>
      <point x="88" y="398" type="curve" smooth="yes"/>
      <point x="88" y="184" type="line" smooth="yes"/>
      <point x="88" y="52"/>
      <point x="136" y="-10"/>
      <point x="236" y="-10" type="curve" smooth="yes"/>
      <point x="319" y="-10"/>
      <point x="354" y="33"/>
      <point x="383" y="91" type="curve"/>
      <point x="388" y="91" type="line"/>
      <point x="386" y="67"/>
      <point x="385" y="46"/>
      <point x="385" y="20" type="curve" smooth="yes"/>
      <point x="385" y="-265" type="line"/>
      <point x="478" y="-265" type="line"/>
      <point x="478" y="-245" type="line"/>
      <point x="418" y="-245"/>
      <point x="413" y="-240"/>
      <point x="413" y="-171" type="curve" smooth="yes"/>
      <point x="413" y="290" type="line" smooth="yes"/>
      <point x="413" y="379"/>
      <point x="444" y="477"/>
      <point x="560" y="477" type="curve" smooth="yes"/>
      <point x="652" y="477"/>
      <point x="682" y="414"/>
      <point x="682" y="325" type="curve" smooth="yes"/>
      <point x="682" y="0" type="line"/>
      <point x="775" y="0" type="line"/>
      <point x="775" y="20" type="line"/>
      <point x="714" y="20"/>
      <point x="710" y="24"/>
    </contour>
  </outline>
</glyph>
<glyph name="uni0584" format="2">
  <advance width="519"/>
  <unicode hex="0584"/>
  <note>
uni0584
</note>
  <outline>
    <contour>
      <point x="289" y="502" type="curve" smooth="yes"/>
      <point x="212" y="502"/>
      <point x="168" y="461"/>
      <point x="145" y="393" type="curve"/>
      <point x="142" y="393" type="line"/>
      <point x="139" y="492" type="line"/>
      <point x="46" y="492" type="line"/>
      <point x="46" y="472" type="line"/>
      <point x="106" y="472"/>
      <point x="115" y="467"/>
      <point x="115" y="398" type="curve" smooth="yes"/>
      <point x="115" y="-265" type="line"/>
      <point x="213" y="-265" type="line"/>
      <point x="213" y="-245" type="line"/>
      <point x="148" y="-245"/>
      <point x="143" y="-240"/>
      <point x="143" y="-167" type="curve" smooth="yes"/>
      <point x="143" y="-31" type="line" smooth="yes"/>
      <point x="143" y="35"/>
      <point x="143" y="83"/>
      <point x="141" y="101" type="curve"/>
      <point x="143" y="101" type="line"/>
      <point x="167" y="35"/>
      <point x="212" y="-10"/>
      <point x="300" y="-10" type="curve" smooth="yes"/>
      <point x="411" y="-10"/>
      <point x="475" y="67"/>
      <point x="475" y="244" type="curve" smooth="yes"/>
      <point x="475" y="419"/>
      <point x="412" y="502"/>
    </contour>
    <contour>
      <point x="297" y="15" type="curve" smooth="yes"/>
      <point x="220" y="15"/>
      <point x="143" y="58"/>
      <point x="143" y="243" type="curve" smooth="yes"/>
      <point x="143" y="382"/>
      <point x="188" y="477"/>
      <point x="286" y="477" type="curve" smooth="yes"/>
      <point x="397" y="477"/>
      <point x="447" y="399"/>
      <point x="447" y="243" type="curve" smooth="yes"/>
      <point x="447" y="86"/>
      <point x="399" y="15"/>
    </contour>
    <contour>
      <point x="17" y="-97" type="line"/>
      <point x="434" y="-97" type="line"/>
      <point x="434" y="-72" type="line"/>
      <point x="17" y="-72" type="line"/>
    </contour>
  </outline>
</glyph>
<glyph name="uni0585" format="2">
  <advance width="447"/>
  <unicode hex="0585"/>
  <note>
uni0585
</note>
  <anchor x="223" y="492" name="top"/>
  <outline>
    <contour>
      <point x="223" y="-10" type="curve" smooth="yes"/>
      <point x="340" y="-10"/>
      <point x="402" y="74"/>
      <point x="402" y="247" type="curve" smooth="yes"/>
      <point x="402" y="424"/>
      <point x="340" y="502"/>
      <point x="227" y="502" type="curve" smooth="yes"/>
      <point x="106" y="502"/>
      <point x="44" y="419"/>
      <point x="44" y="247" type="curve" smooth="yes"/>
      <point x="44" y="74"/>
      <point x="112" y="-10"/>
    </contour>
    <contour>
      <point x="223" y="15" type="curve" smooth="yes"/>
      <point x="118" y="15"/>
      <point x="72" y="102"/>
      <point x="72" y="247" type="curve" smooth="yes"/>
      <point x="72" y="399"/>
      <point x="117" y="477"/>
      <point x="227" y="477" type="curve" smooth="yes"/>
      <point x="328" y="477"/>
      <point x="374" y="403"/>
      <point x="374" y="247" type="curve" smooth="yes"/>
      <point x="374" y="108"/>
      <point x="335" y="15"/>
    </contour>
  </outline>
</glyph>
<glyph name="uni0586" format="2">
  <advance width="551"/>
  <unicode hex="0586"/>
  <note>
uni0586
</note>
  <outline>
    <contour>
      <point x="270" y="-10" type="curve" smooth="yes"/>
      <point x="427" y="-10"/>
      <point x="515" y="72"/>
      <point x="515" y="199" type="curve" smooth="yes"/>
      <point x="515" y="328"/>
      <point x="440" y="409"/>
      <point x="274" y="458" type="curve" smooth="yes"/>
      <point x="122" y="503"/>
      <point x="82" y="547"/>
      <point x="82" y="624" type="curve" smooth="yes"/>
      <point x="82" y="688"/>
      <point x="134" y="740"/>
      <point x="259" y="740" type="curve"/>
      <point x="259" y="765" type="line"/>
      <point x="119" y="765"/>
      <point x="54" y="706"/>
      <point x="54" y="624" type="curve" smooth="yes"/>
      <point x="54" y="533"/>
      <point x="100" y="483"/>
      <point x="263" y="433" type="curve"/>
      <point x="431" y="382"/>
      <point x="487" y="311"/>
      <point x="487" y="198" type="curve" smooth="yes"/>
      <point x="487" y="83"/>
      <point x="414" y="15"/>
      <point x="269" y="15" type="curve" smooth="yes"/>
      <point x="111" y="15"/>
      <point x="51" y="86"/>
      <point x="51" y="186" type="curve"/>
      <point x="34" y="186"/>
      <point x="23" y="175"/>
      <point x="23" y="161" type="curve" smooth="yes"/>
      <point x="23" y="77"/>
      <point x="88" y="-10"/>
    </contour>
    <contour>
      <point x="259" y="-265" type="line"/>
      <point x="347" y="-265" type="line"/>
      <point x="347" y="-245" type="line"/>
      <point x="292" y="-245"/>
      <point x="287" y="-240"/>
      <point x="287" y="-171" type="curve" smooth="yes"/>
      <point x="287" y="765" type="line"/>
      <point x="259" y="765" type="line"/>
    </contour>
  </outline>
</glyph>
<glyph name="uni0587" format="2">
  <advance width="524"/>
  <unicode hex="0587"/>
  <note>
uni0587
</note>
  <outline>
    <contour>
      <point x="236" y="-10" type="curve" smooth="yes"/>
      <point x="319" y="-10"/>
      <point x="353" y="33"/>
      <point x="382" y="91" type="curve"/>
      <point x="386" y="91" type="line"/>
      <point x="389" y="0" type="line"/>
      <point x="413" y="0" type="line"/>
      <point x="413" y="492" type="line"/>
      <point x="320" y="492" type="line"/>
      <point x="320" y="472" type="line"/>
      <point x="383" y="472"/>
      <point x="385" y="468"/>
      <point x="385" y="398" type="curve" smooth="yes"/>
      <point x="385" y="202" type="line" smooth="yes"/>
      <point x="385" y="104"/>
      <point x="336" y="15"/>
      <point x="237" y="15" type="curve" smooth="yes"/>
      <point x="143" y="15"/>
      <point x="116" y="86"/>
      <point x="116" y="181" type="curve" smooth="yes"/>
      <point x="116" y="760" type="line"/>
      <point x="25" y="760" type="line"/>
      <point x="25" y="740" type="line"/>
      <point x="84" y="740"/>
      <point x="88" y="736"/>
      <point x="88" y="666" type="curve" smooth="yes"/>
      <point x="88" y="184" type="line" smooth="yes"/>
      <point x="88" y="52"/>
      <point x="136" y="-10"/>
    </contour>
    <contour>
      <point x="399" y="0" type="line"/>
      <point x="519" y="0" type="line"/>
      <point x="519" y="28" type="line"/>
      <point x="399" y="28" type="line"/>
    </contour>
  </outline>
</glyph>
<glyph name="uni0588" format="2">
  <advance width="204"/>
  <unicode hex="0588"/>
  <note>
uni0575
</note>
  <outline>
    <contour>
      <point x="89" y="83" type="line"/>
      <point x="89" y="-33"/>
      <point x="131" y="-67"/>
      <point x="131" y="-164" type="curve" smooth="yes"/>
      <point x="131" y="-224"/>
      <point x="102" y="-240"/>
      <point x="45" y="-240" type="curve" smooth="yes"/>
      <point x="39" y="-240" type="line"/>
      <point x="39" y="-265" type="line"/>
      <point x="49" y="-265" type="line" smooth="yes"/>
      <point x="124" y="-265"/>
      <point x="159" y="-232"/>
      <point x="159" y="-163" type="curve" smooth="yes"/>
      <point x="159" y="-57"/>
      <point x="117" y="-25"/>
      <point x="117" y="82" type="curve" smooth="yes"/>
      <point x="117" y="492" type="line"/>
      <point x="24" y="492" type="line"/>
      <point x="24" y="472" type="line"/>
      <point x="49" y="472" type="line" smooth="yes"/>
      <point x="84" y="472"/>
      <point x="89" y="466"/>
      <point x="89" y="428" type="curve" smooth="yes"/>
    </contour>
    <contour>
      <point x="19" y="112" type="line"/>
      <point x="19" y="87" type="line"/>
      <point x="187" y="87" type="line"/>
      <point x="187" y="112" type="line"/>
    </contour>
  </outline>
</glyph>
<glyph name="uni058A" format="2">
  <advance width="396"/>
  <unicode hex="058A"/>
  <note>
uni058A
</note>
  <outline>
    <contour>
      <point x="172" y="228" type="curve" smooth="yes"/>
      <point x="235" y="228"/>
      <point x="297" y="234"/>
      <point x="354" y="265" type="curve"/>
      <point x="344" y="288" type="line"/>
      <point x="288" y="262"/>
      <point x="227" y="253"/>
      <point x="174" y="253" type="curve" smooth="yes"/>
      <point x="103" y="253"/>
      <point x="75" y="274"/>
      <point x="75" y="325" type="curve"/>
      <point x="47" y="325" type="line"/>
      <point x="47" y="255"/>
      <point x="91" y="228"/>
    </contour>
  </outline>
</glyph>
<glyph name="uni058D" format="2">
  <advance width="816"/>
  <unicode hex="058D"/>
  <outline>
    <contour>
      <point x="408" y="-9" type="curve" smooth="yes"/>
      <point x="458" y="-9"/>
      <point x="504" y="11"/>
      <point x="538" y="43" type="curve"/>
      <point x="638" y="47"/>
      <point x="719" y="127"/>
      <point x="721" y="227" type="curve"/>
      <point x="754" y="261"/>
      <point x="774" y="306"/>
      <point x="774" y="357" type="curve" smooth="yes"/>
      <point x="774" y="408"/>
      <point x="754" y="454"/>
      <point x="721" y="488" type="curve"/>
      <point x="717" y="591"/>
      <point x="635" y="668"/>
      <point x="538" y="670" type="curve"/>
      <point x="504" y="703"/>
      <point x="459" y="723"/>
      <point x="408" y="723" type="curve" smooth="yes"/>
      <point x="358" y="723"/>
      <point x="311" y="703"/>
      <point x="277" y="670" type="curve"/>
      <point x="174" y="666"/>
      <point x="97" y="583"/>
      <point x="95" y="487" type="curve"/>
      <point x="62" y="453"/>
      <point x="42" y="406"/>
      <point x="42" y="357" type="curve" smooth="yes"/>
      <point x="42" y="306"/>
      <point x="62" y="260"/>
      <point x="95" y="226" type="curve"/>
      <point x="97" y="124"/>
      <point x="182" y="46"/>
      <point x="278" y="44" type="curve"/>
      <point x="312" y="12"/>
      <point x="358" y="-9"/>
    </contour>
    <contour>
      <point x="564" y="74" type="curve"/>
      <point x="586" y="105"/>
      <point x="598" y="142"/>
      <point x="598" y="182" type="curve" smooth="yes"/>
      <point x="598" y="275"/>
      <point x="531" y="352"/>
      <point x="442" y="368" type="curve"/>
      <point x="468" y="386"/>
      <point x="499" y="394"/>
      <point x="530" y="394" type="curve" smooth="yes"/>
      <point x="625" y="394"/>
      <point x="694" y="319"/>
      <point x="694" y="231" type="curve" smooth="yes"/>
      <point x="694" y="154"/>
      <point x="639" y="89"/>
    </contour>
    <contour>
      <point x="408" y="19" type="curve" smooth="yes"/>
      <point x="375" y="19"/>
      <point x="344" y="30"/>
      <point x="319" y="47" type="curve"/>
      <point x="407" y="62"/>
      <point x="473" y="141"/>
      <point x="473" y="232" type="curve" smooth="yes"/>
      <point x="473" y="270"/>
      <point x="462" y="307"/>
      <point x="439" y="340" type="curve"/>
      <point x="513" y="325"/>
      <point x="569" y="260"/>
      <point x="569" y="182" type="curve" smooth="yes"/>
      <point x="569" y="92"/>
      <point x="496" y="19"/>
    </contour>
    <contour>
      <point x="719" y="267" type="curve"/>
      <point x="702" y="356"/>
      <point x="624" y="422"/>
      <point x="533" y="422" type="curve" smooth="yes"/>
      <point x="495" y="422"/>
      <point x="458" y="411"/>
      <point x="425" y="388" type="curve"/>
      <point x="440" y="462"/>
      <point x="505" y="518"/>
      <point x="583" y="518" type="curve" smooth="yes"/>
      <point x="673" y="518"/>
      <point x="746" y="445"/>
      <point x="746" y="357" type="curve" smooth="yes"/>
      <point x="746" y="324"/>
      <point x="737" y="293"/>
    </contour>
    <contour>
      <point x="282" y="72" type="curve" smooth="yes"/>
      <point x="201" y="72"/>
      <point x="141" y="127"/>
      <point x="126" y="200" type="curve"/>
      <point x="156" y="179"/>
      <point x="193" y="167"/>
      <point x="233" y="167" type="curve" smooth="yes"/>
      <point x="326" y="167"/>
      <point x="403" y="234"/>
      <point x="419" y="323" type="curve"/>
      <point x="437" y="297"/>
      <point x="445" y="266"/>
      <point x="445" y="235" type="curve" smooth="yes"/>
      <point x="445" y="143"/>
      <point x="374" y="72"/>
    </contour>
    <contour>
      <point x="397" y="391" type="curve"/>
      <point x="379" y="417"/>
      <point x="371" y="448"/>
      <point x="371" y="479" type="curve" smooth="yes"/>
      <point x="371" y="571"/>
      <point x="442" y="642"/>
      <point x="534" y="642" type="curve" smooth="yes"/>
      <point x="612" y="642"/>
      <point x="675" y="591"/>
      <point x="690" y="514" type="curve"/>
      <point x="660" y="535"/>
      <point x="623" y="547"/>
      <point x="583" y="547" type="curve" smooth="yes"/>
      <point x="490" y="547"/>
      <point x="413" y="480"/>
    </contour>
    <contour>
      <point x="233" y="196" type="curve" smooth="yes"/>
      <point x="143" y="196"/>
      <point x="70" y="269"/>
      <point x="70" y="357" type="curve" smooth="yes"/>
      <point x="70" y="390"/>
      <point x="80" y="421"/>
      <point x="98" y="446" type="curve"/>
      <point x="113" y="358"/>
      <point x="192" y="292"/>
      <point x="283" y="292" type="curve" smooth="yes"/>
      <point x="321" y="292"/>
      <point x="358" y="303"/>
      <point x="391" y="326" type="curve"/>
      <point x="376" y="252"/>
      <point x="311" y="196"/>
    </contour>
    <contour>
      <point x="377" y="374" type="curve"/>
      <point x="303" y="389"/>
      <point x="247" y="454"/>
      <point x="247" y="532" type="curve" smooth="yes"/>
      <point x="247" y="622"/>
      <point x="320" y="695"/>
      <point x="408" y="695" type="curve" smooth="yes"/>
      <point x="440" y="695"/>
      <point x="472" y="685"/>
      <point x="497" y="667" type="curve"/>
      <point x="409" y="652"/>
      <point x="343" y="573"/>
      <point x="343" y="482" type="curve" smooth="yes"/>
      <point x="343" y="444"/>
      <point x="354" y="407"/>
    </contour>
    <contour>
      <point x="286" y="320" type="curve" smooth="yes"/>
      <point x="191" y="320"/>
      <point x="122" y="395"/>
      <point x="122" y="483" type="curve" smooth="yes"/>
      <point x="122" y="562"/>
      <point x="179" y="625"/>
      <point x="251" y="640" type="curve"/>
      <point x="230" y="609"/>
      <point x="218" y="572"/>
      <point x="218" y="532" type="curve" smooth="yes"/>
      <point x="218" y="439"/>
      <point x="285" y="362"/>
      <point x="374" y="346" type="curve"/>
      <point x="348" y="328"/>
      <point x="317" y="320"/>
    </contour>
  </outline>
</glyph>
<glyph name="uni058F" format="2">
  <advance width="607"/>
  <unicode hex="058F"/>
  <note>
uni058F
</note>
  <outline>
    <contour>
      <point x="52" y="368" type="line"/>
      <point x="80" y="368" type="line"/>
      <point x="80" y="445" type="line" smooth="yes"/>
      <point x="80" y="558"/>
      <point x="135" y="649"/>
      <point x="259" y="649" type="curve" smooth="yes"/>
      <point x="368" y="649"/>
      <point x="435" y="588"/>
      <point x="435" y="454" type="curve" smooth="yes"/>
      <point x="435" y="0" type="line"/>
      <point x="519" y="0" type="line"/>
      <point x="519" y="20" type="line"/>
      <point x="469" y="20"/>
      <point x="463" y="31"/>
      <point x="463" y="108" type="curve" smooth="yes"/>
      <point x="463" y="450" type="line" smooth="yes"/>
      <point x="463" y="613"/>
      <point x="381" y="674"/>
      <point x="257" y="674" type="curve" smooth="yes"/>
      <point x="118" y="674"/>
      <point x="52" y="576"/>
      <point x="52" y="446" type="curve" smooth="yes"/>
    </contour>
    <contour>
      <point x="306" y="307" type="line"/>
      <point x="593" y="307" type="line"/>
      <point x="593" y="332" type="line"/>
      <point x="306" y="332" type="line"/>
    </contour>
    <contour>
      <point x="306" y="219" type="line"/>
      <point x="593" y="219" type="line"/>
      <point x="593" y="244" type="line"/>
      <point x="306" y="244" type="line"/>
    </contour>
  </outline>
</glyph>
<glyph name="uniFB13" format="2">
  <advance width="1032"/>
  <unicode hex="FB13"/>
  <note>
uniFB13
</note>
  <outline>
    <contour>
      <point x="413" y="94" type="curve" smooth="yes"/>
      <point x="413" y="453" type="line" smooth="yes"/>
      <point x="413" y="510"/>
      <point x="397" y="541"/>
      <point x="384" y="573" type="curve" smooth="yes"/>
      <point x="374" y="597"/>
      <point x="366" y="621"/>
      <point x="366" y="656" type="curve" smooth="yes"/>
      <point x="366" y="710"/>
      <point x="393" y="745"/>
      <point x="446" y="745" type="curve" smooth="yes"/>
      <point x="492" y="745"/>
      <point x="538" y="728"/>
      <point x="609" y="687" type="curve"/>
      <point x="639" y="702" type="line"/>
      <point x="548" y="753"/>
      <point x="510" y="770"/>
      <point x="447" y="770" type="curve" smooth="yes"/>
      <point x="376" y="770"/>
      <point x="338" y="723"/>
      <point x="338" y="656" type="curve" smooth="yes"/>
      <point x="338" y="614"/>
      <point x="348" y="588"/>
      <point x="358" y="564" type="curve" smooth="yes"/>
      <point x="371" y="533"/>
      <point x="385" y="504"/>
      <point x="385" y="453" type="curve" smooth="yes"/>
      <point x="385" y="202" type="line" smooth="yes"/>
      <point x="385" y="104"/>
      <point x="336" y="15"/>
      <point x="237" y="15" type="curve" smooth="yes"/>
      <point x="143" y="15"/>
      <point x="116" y="86"/>
      <point x="116" y="181" type="curve" smooth="yes"/>
      <point x="116" y="492" type="line"/>
      <point x="25" y="492" type="line"/>
      <point x="25" y="472" type="line"/>
      <point x="84" y="472"/>
      <point x="88" y="468"/>
      <point x="88" y="398" type="curve" smooth="yes"/>
      <point x="88" y="184" type="line" smooth="yes"/>
      <point x="88" y="52"/>
      <point x="136" y="-10"/>
      <point x="236" y="-10" type="curve" smooth="yes"/>
      <point x="319" y="-10"/>
      <point x="353" y="33"/>
      <point x="382" y="91" type="curve"/>
      <point x="386" y="91" type="line"/>
      <point x="389" y="0" type="line"/>
      <point x="478" y="0" type="line"/>
      <point x="478" y="20" type="line"/>
      <point x="418" y="20"/>
      <point x="413" y="25"/>
    </contour>
    <contour>
      <point x="932" y="94" type="curve" smooth="yes"/>
      <point x="932" y="492" type="line"/>
      <point x="841" y="492" type="line"/>
      <point x="841" y="472" type="line"/>
      <point x="900" y="472"/>
      <point x="904" y="468"/>
      <point x="904" y="398" type="curve" smooth="yes"/>
      <point x="904" y="202" type="line" smooth="yes"/>
      <point x="904" y="113"/>
      <point x="860" y="15"/>
      <point x="740" y="15" type="curve" smooth="yes"/>
      <point x="645" y="15"/>
      <point x="598" y="93"/>
      <point x="598" y="194" type="curve" smooth="yes"/>
      <point x="598" y="323"/>
      <point x="639" y="434"/>
      <point x="715" y="572" type="curve"/>
      <point x="691" y="583" type="line"/>
      <point x="616" y="452"/>
      <point x="570" y="333"/>
      <point x="570" y="196" type="curve" smooth="yes"/>
      <point x="570" y="60"/>
      <point x="638" y="-10"/>
      <point x="741" y="-10" type="curve" smooth="yes"/>
      <point x="818" y="-10"/>
      <point x="857" y="9"/>
      <point x="901" y="84" type="curve"/>
      <point x="905" y="84" type="line"/>
      <point x="908" y="0" type="line"/>
      <point x="1002" y="0" type="line"/>
      <point x="1002" y="20" type="line"/>
      <point x="936" y="20"/>
      <point x="932" y="25"/>
    </contour>
    <contour>
      <point x="639" y="702" type="curve"/>
      <point x="613" y="706" type="line"/>
      <point x="607" y="696"/>
      <point x="602" y="682"/>
      <point x="602" y="668" type="curve" smooth="yes"/>
      <point x="602" y="612"/>
      <point x="636" y="581"/>
      <point x="692" y="564" type="curve"/>
      <point x="715" y="572" type="line"/>
      <point x="715" y="587" type="line"/>
      <point x="663" y="597"/>
      <point x="630" y="619"/>
      <point x="630" y="667" type="curve" smooth="yes"/>
      <point x="630" y="679"/>
      <point x="633" y="693"/>
    </contour>
  </outline>
</glyph>
<glyph name="uniFB14" format="2">
  <advance width="1028"/>
  <unicode hex="FB14"/>
  <note>
uniFB14
</note>
  <outline>
    <contour>
      <point x="338" y="656" type="curve" smooth="yes"/>
      <point x="338" y="614"/>
      <point x="348" y="587"/>
      <point x="359" y="562" type="curve" smooth="yes"/>
      <point x="372" y="533"/>
      <point x="385" y="502"/>
      <point x="385" y="453" type="curve" smooth="yes"/>
      <point x="385" y="202" type="line" smooth="yes"/>
      <point x="385" y="104"/>
      <point x="336" y="15"/>
      <point x="237" y="15" type="curve" smooth="yes"/>
      <point x="143" y="15"/>
      <point x="116" y="86"/>
      <point x="116" y="181" type="curve" smooth="yes"/>
      <point x="116" y="492" type="line"/>
      <point x="25" y="492" type="line"/>
      <point x="25" y="472" type="line"/>
      <point x="84" y="472"/>
      <point x="88" y="468"/>
      <point x="88" y="398" type="curve" smooth="yes"/>
      <point x="88" y="184" type="line" smooth="yes"/>
      <point x="88" y="52"/>
      <point x="136" y="-10"/>
      <point x="236" y="-10" type="curve" smooth="yes"/>
      <point x="319" y="-10"/>
      <point x="353" y="33"/>
      <point x="382" y="91" type="curve"/>
      <point x="386" y="91" type="line"/>
      <point x="389" y="0" type="line"/>
      <point x="478" y="0" type="line"/>
      <point x="478" y="20" type="line"/>
      <point x="418" y="20"/>
      <point x="413" y="25"/>
      <point x="413" y="94" type="curve" smooth="yes"/>
      <point x="413" y="453" type="line" smooth="yes"/>
      <point x="413" y="512"/>
      <point x="396" y="546"/>
      <point x="382" y="580" type="curve" smooth="yes"/>
      <point x="373" y="602"/>
      <point x="366" y="624"/>
      <point x="366" y="656" type="curve" smooth="yes"/>
      <point x="366" y="710"/>
      <point x="393" y="745"/>
      <point x="446" y="745" type="curve" smooth="yes"/>
      <point x="498" y="745"/>
      <point x="544" y="734"/>
      <point x="613" y="693" type="curve"/>
      <point x="630" y="714" type="line"/>
      <point x="550" y="757"/>
      <point x="514" y="770"/>
      <point x="447" y="770" type="curve" smooth="yes"/>
      <point x="376" y="770"/>
      <point x="338" y="723"/>
    </contour>
    <contour>
      <point x="927" y="316" type="line"/>
      <point x="899" y="316" type="line"/>
      <point x="899" y="202" type="line" smooth="yes"/>
      <point x="899" y="104"/>
      <point x="850" y="15"/>
      <point x="751" y="15" type="curve" smooth="yes"/>
      <point x="657" y="15"/>
      <point x="630" y="86"/>
      <point x="630" y="181" type="curve" smooth="yes"/>
      <point x="630" y="714" type="line"/>
      <point x="602" y="714" type="line"/>
      <point x="602" y="184" type="line" smooth="yes"/>
      <point x="602" y="52"/>
      <point x="650" y="-10"/>
      <point x="750" y="-10" type="curve" smooth="yes"/>
      <point x="833" y="-10"/>
      <point x="867" y="33"/>
      <point x="896" y="91" type="curve"/>
      <point x="900" y="91" type="line"/>
      <point x="903" y="0" type="line"/>
      <point x="992" y="0" type="line"/>
      <point x="992" y="20" type="line"/>
      <point x="932" y="20"/>
      <point x="927" y="25"/>
      <point x="927" y="94" type="curve" smooth="yes"/>
    </contour>
    <contour>
      <point x="618" y="467" type="line"/>
      <point x="998" y="467" type="line"/>
      <point x="998" y="492" type="line"/>
      <point x="618" y="492" type="line"/>
    </contour>
  </outline>
</glyph>
<glyph name="uniFB15" format="2">
  <advance width="1017"/>
  <unicode hex="FB15"/>
  <note>
uniFB15
</note>
  <outline>
    <contour>
      <point x="338" y="656" type="curve" smooth="yes"/>
      <point x="338" y="619"/>
      <point x="346" y="594"/>
      <point x="355" y="571" type="curve" smooth="yes"/>
      <point x="368" y="537"/>
      <point x="385" y="508"/>
      <point x="385" y="453" type="curve" smooth="yes"/>
      <point x="385" y="202" type="line" smooth="yes"/>
      <point x="385" y="104"/>
      <point x="336" y="15"/>
      <point x="237" y="15" type="curve" smooth="yes"/>
      <point x="143" y="15"/>
      <point x="116" y="86"/>
      <point x="116" y="181" type="curve" smooth="yes"/>
      <point x="116" y="492" type="line"/>
      <point x="25" y="492" type="line"/>
      <point x="25" y="472" type="line"/>
      <point x="84" y="472"/>
      <point x="88" y="468"/>
      <point x="88" y="398" type="curve" smooth="yes"/>
      <point x="88" y="184" type="line" smooth="yes"/>
      <point x="88" y="52"/>
      <point x="136" y="-10"/>
      <point x="236" y="-10" type="curve" smooth="yes"/>
      <point x="319" y="-10"/>
      <point x="353" y="33"/>
      <point x="382" y="91" type="curve"/>
      <point x="386" y="91" type="line"/>
      <point x="389" y="0" type="line"/>
      <point x="478" y="0" type="line"/>
      <point x="478" y="20" type="line"/>
      <point x="418" y="20"/>
      <point x="413" y="25"/>
      <point x="413" y="94" type="curve" smooth="yes"/>
      <point x="413" y="453" type="line" smooth="yes"/>
      <point x="413" y="517"/>
      <point x="393" y="549"/>
      <point x="379" y="585" type="curve" smooth="yes"/>
      <point x="371" y="605"/>
      <point x="366" y="627"/>
      <point x="366" y="656" type="curve" smooth="yes"/>
      <point x="366" y="710"/>
      <point x="399" y="745"/>
      <point x="452" y="745" type="curve" smooth="yes"/>
      <point x="492" y="745"/>
      <point x="537" y="734"/>
      <point x="613" y="693" type="curve"/>
      <point x="630" y="714" type="line"/>
      <point x="539" y="761"/>
      <point x="505" y="770"/>
      <point x="453" y="770" type="curve" smooth="yes"/>
      <point x="382" y="770"/>
      <point x="338" y="723"/>
    </contour>
    <contour>
      <point x="992" y="20" type="line"/>
      <point x="931" y="20"/>
      <point x="927" y="24"/>
      <point x="927" y="94" type="curve" smooth="yes"/>
      <point x="927" y="317" type="line" smooth="yes"/>
      <point x="927" y="442"/>
      <point x="884" y="502"/>
      <point x="780" y="502" type="curve" smooth="yes"/>
      <point x="714" y="502"/>
      <point x="668" y="480"/>
      <point x="632" y="405" type="curve"/>
      <point x="627" y="405" type="line"/>
      <point x="629" y="433"/>
      <point x="630" y="461"/>
      <point x="630" y="489" type="curve" smooth="yes"/>
      <point x="630" y="714" type="line"/>
      <point x="602" y="714" type="line"/>
      <point x="602" y="-265" type="line"/>
      <point x="695" y="-265" type="line"/>
      <point x="695" y="-245" type="line"/>
      <point x="634" y="-245"/>
      <point x="630" y="-241"/>
      <point x="630" y="-171" type="curve" smooth="yes"/>
      <point x="630" y="290" type="line" smooth="yes"/>
      <point x="630" y="379"/>
      <point x="661" y="477"/>
      <point x="777" y="477" type="curve" smooth="yes"/>
      <point x="869" y="477"/>
      <point x="899" y="414"/>
      <point x="899" y="325" type="curve" smooth="yes"/>
      <point x="899" y="0" type="line"/>
      <point x="992" y="0" type="line"/>
    </contour>
  </outline>
</glyph>
<glyph name="uniFB16" format="2">
  <advance width="1002"/>
  <unicode hex="FB16"/>
  <note>
uniFB16
</note>
  <outline>
    <contour>
      <point x="385" y="-265" type="line"/>
      <point x="413" y="-265" type="line"/>
      <point x="413" y="712" type="line" smooth="yes"/>
      <point x="413" y="736"/>
      <point x="421" y="745"/>
      <point x="448" y="745" type="curve" smooth="yes"/>
      <point x="479" y="745"/>
      <point x="528" y="733"/>
      <point x="589" y="697" type="curve"/>
      <point x="619" y="712" type="line"/>
      <point x="538" y="758"/>
      <point x="486" y="770"/>
      <point x="448" y="770" type="curve"/>
      <point x="402" y="770"/>
      <point x="385" y="753"/>
      <point x="385" y="712" type="curve" smooth="yes"/>
      <point x="385" y="202" type="line" smooth="yes"/>
      <point x="385" y="104"/>
      <point x="336" y="15"/>
      <point x="237" y="15" type="curve" smooth="yes"/>
      <point x="143" y="15"/>
      <point x="116" y="86"/>
      <point x="116" y="181" type="curve" smooth="yes"/>
      <point x="116" y="492" type="line"/>
      <point x="25" y="492" type="line"/>
      <point x="25" y="472" type="line"/>
      <point x="84" y="472"/>
      <point x="88" y="468"/>
      <point x="88" y="398" type="curve" smooth="yes"/>
      <point x="88" y="184" type="line" smooth="yes"/>
      <point x="88" y="52"/>
      <point x="136" y="-10"/>
      <point x="236" y="-10" type="curve" smooth="yes"/>
      <point x="319" y="-10"/>
      <point x="354" y="33"/>
      <point x="383" y="91" type="curve"/>
      <point x="388" y="91" type="line"/>
      <point x="386" y="66"/>
      <point x="385" y="41"/>
      <point x="385" y="16" type="curve" smooth="yes"/>
    </contour>
    <contour>
      <point x="403" y="-265" type="line"/>
      <point x="533" y="-265" type="line"/>
      <point x="533" y="-237" type="line"/>
      <point x="403" y="-237" type="line"/>
    </contour>
    <contour>
      <point x="711" y="-10" type="curve" smooth="yes"/>
      <point x="788" y="-10"/>
      <point x="827" y="9"/>
      <point x="871" y="84" type="curve"/>
      <point x="875" y="84" type="line"/>
      <point x="878" y="0" type="line"/>
      <point x="972" y="0" type="line"/>
      <point x="972" y="20" type="line"/>
      <point x="906" y="20"/>
      <point x="902" y="25"/>
      <point x="902" y="94" type="curve" smooth="yes"/>
      <point x="902" y="492" type="line"/>
      <point x="811" y="492" type="line"/>
      <point x="811" y="472" type="line"/>
      <point x="870" y="472"/>
      <point x="874" y="468"/>
      <point x="874" y="398" type="curve" smooth="yes"/>
      <point x="874" y="202" type="line" smooth="yes"/>
      <point x="874" y="113"/>
      <point x="830" y="15"/>
      <point x="710" y="15" type="curve" smooth="yes"/>
      <point x="615" y="15"/>
      <point x="568" y="93"/>
      <point x="568" y="194" type="curve" smooth="yes"/>
      <point x="568" y="323"/>
      <point x="609" y="434"/>
      <point x="685" y="572" type="curve"/>
      <point x="661" y="583" type="line"/>
      <point x="586" y="452"/>
      <point x="540" y="333"/>
      <point x="540" y="196" type="curve" smooth="yes"/>
      <point x="540" y="60"/>
      <point x="608" y="-10"/>
    </contour>
    <contour>
      <point x="662" y="564" type="curve"/>
      <point x="685" y="572" type="line"/>
      <point x="685" y="587" type="line"/>
      <point x="617" y="606"/>
      <point x="600" y="619"/>
      <point x="600" y="657" type="curve" smooth="yes"/>
      <point x="600" y="679"/>
      <point x="606" y="697"/>
      <point x="619" y="712" type="curve"/>
      <point x="598" y="721" type="line"/>
      <point x="584" y="709"/>
      <point x="572" y="685"/>
      <point x="572" y="658" type="curve" smooth="yes"/>
      <point x="572" y="612"/>
      <point x="590" y="590"/>
    </contour>
  </outline>
</glyph>
<glyph name="uniFB17" format="2">
  <advance width="1319"/>
  <unicode hex="FB17"/>
  <note>
uniFB17
</note>
  <outline>
    <contour>
      <point x="338" y="656" type="curve" smooth="yes"/>
      <point x="338" y="622"/>
      <point x="345" y="598"/>
      <point x="353" y="576" type="curve" smooth="yes"/>
      <point x="367" y="540"/>
      <point x="385" y="511"/>
      <point x="385" y="453" type="curve" smooth="yes"/>
      <point x="385" y="202" type="line" smooth="yes"/>
      <point x="385" y="104"/>
      <point x="336" y="15"/>
      <point x="237" y="15" type="curve" smooth="yes"/>
      <point x="143" y="15"/>
      <point x="116" y="86"/>
      <point x="116" y="181" type="curve" smooth="yes"/>
      <point x="116" y="492" type="line"/>
      <point x="25" y="492" type="line"/>
      <point x="25" y="472" type="line"/>
      <point x="84" y="472"/>
      <point x="88" y="468"/>
      <point x="88" y="398" type="curve" smooth="yes"/>
      <point x="88" y="184" type="line" smooth="yes"/>
      <point x="88" y="52"/>
      <point x="136" y="-10"/>
      <point x="236" y="-10" type="curve" smooth="yes"/>
      <point x="319" y="-10"/>
      <point x="353" y="33"/>
      <point x="382" y="91" type="curve"/>
      <point x="386" y="91" type="line"/>
      <point x="389" y="0" type="line"/>
      <point x="478" y="0" type="line"/>
      <point x="478" y="20" type="line"/>
      <point x="418" y="20"/>
      <point x="413" y="25"/>
      <point x="413" y="94" type="curve" smooth="yes"/>
      <point x="413" y="453" type="line" smooth="yes"/>
      <point x="413" y="513"/>
      <point x="396" y="544"/>
      <point x="382" y="578" type="curve" smooth="yes"/>
      <point x="373" y="600"/>
      <point x="366" y="623"/>
      <point x="366" y="656" type="curve" smooth="yes"/>
      <point x="366" y="710"/>
      <point x="403" y="745"/>
      <point x="456" y="745" type="curve" smooth="yes"/>
      <point x="502" y="745"/>
      <point x="548" y="732"/>
      <point x="613" y="691" type="curve"/>
      <point x="630" y="714" type="line"/>
      <point x="553" y="757"/>
      <point x="516" y="770"/>
      <point x="457" y="770" type="curve" smooth="yes"/>
      <point x="386" y="770"/>
      <point x="338" y="723"/>
    </contour>
    <contour>
      <point x="1224" y="94" type="curve" smooth="yes"/>
      <point x="1224" y="492" type="line"/>
      <point x="1131" y="492" type="line"/>
      <point x="1131" y="472" type="line"/>
      <point x="1194" y="472"/>
      <point x="1196" y="468"/>
      <point x="1196" y="398" type="curve" smooth="yes"/>
      <point x="1196" y="202" type="line" smooth="yes"/>
      <point x="1196" y="104"/>
      <point x="1147" y="15"/>
      <point x="1048" y="15" type="curve" smooth="yes"/>
      <point x="954" y="15"/>
      <point x="927" y="86"/>
      <point x="927" y="181" type="curve" smooth="yes"/>
      <point x="927" y="317" type="line" smooth="yes"/>
      <point x="927" y="442"/>
      <point x="884" y="502"/>
      <point x="780" y="502" type="curve" smooth="yes"/>
      <point x="714" y="502"/>
      <point x="668" y="480"/>
      <point x="632" y="405" type="curve"/>
      <point x="627" y="405" type="line"/>
      <point x="628" y="433"/>
      <point x="630" y="460"/>
      <point x="630" y="488" type="curve" smooth="yes"/>
      <point x="630" y="714" type="line"/>
      <point x="602" y="702" type="line"/>
      <point x="602" y="-265" type="line"/>
      <point x="695" y="-265" type="line"/>
      <point x="695" y="-245" type="line"/>
      <point x="634" y="-245"/>
      <point x="630" y="-241"/>
      <point x="630" y="-171" type="curve" smooth="yes"/>
      <point x="630" y="290" type="line" smooth="yes"/>
      <point x="630" y="379"/>
      <point x="661" y="477"/>
      <point x="777" y="477" type="curve" smooth="yes"/>
      <point x="869" y="477"/>
      <point x="899" y="414"/>
      <point x="899" y="325" type="curve" smooth="yes"/>
      <point x="899" y="184" type="line" smooth="yes"/>
      <point x="899" y="52"/>
      <point x="947" y="-10"/>
      <point x="1047" y="-10" type="curve" smooth="yes"/>
      <point x="1130" y="-10"/>
      <point x="1164" y="33"/>
      <point x="1193" y="91" type="curve"/>
      <point x="1197" y="91" type="line"/>
      <point x="1200" y="0" type="line"/>
      <point x="1289" y="0" type="line"/>
      <point x="1289" y="20" type="line"/>
      <point x="1229" y="20"/>
      <point x="1224" y="25"/>
    </contour>
  </outline>
</glyph>
